<svg width="900" height="356" viewBox="0 0 900 356" fill="none" xmlns="http://www.w3.org/2000/svg">
<g clip-path="url(#clip0_3723_15961)">
<g clip-path="url(#clip1_3723_15961)">
<mask id="path-1-inside-1_3723_15961" fill="white">
<path d="M64 18C64 8.05888 72.0589 0 82 0H819C828.941 0 837 8.05887 837 18V372H64V18Z"/>
</mask>
<path d="M64 18C64 8.05888 72.0589 0 82 0H819C828.941 0 837 8.05887 837 18V372H64V18Z" fill="#0A0A0A" fill-opacity="0.03"/>
<rect x="80" y="14" width="10.2667" height="10.2667" rx="5.13333" fill="#0A0A0A" fill-opacity="0.05"/>
<rect x="96.8672" y="14" width="10.2667" height="10.2667" rx="5.13333" fill="#0A0A0A" fill-opacity="0.05"/>
<rect x="113.732" y="14" width="10.2667" height="10.2667" rx="5.13333" fill="#0A0A0A" fill-opacity="0.05"/>
<path d="M237 14C237 6.26802 243.268 0 251 0H823C830.732 0 837 6.26801 837 14V371C837 378.732 830.732 385 823 385H251C243.268 385 237 378.732 237 371V14Z" fill="white" fill-opacity="0.85"/>
<path fill-rule="evenodd" clip-rule="evenodd" d="M537 74.1973C553.517 74.1973 566.906 87.9884 566.906 105.001C566.906 122.013 553.517 135.804 537 135.804C520.483 135.804 507.094 122.013 507.094 105.001C507.094 87.9884 520.483 74.1973 537 74.1973ZM559.86 93.2032C559.587 92.6751 558.8 92.8688 558.738 93.4601C558.124 99.293 555.46 106.219 550.949 112.857C550.863 112.983 550.885 113.153 550.999 113.253C552.252 114.337 553.662 115.521 555.233 116.838C555.413 116.99 555.446 117.255 555.307 117.446L554.428 118.656C554.29 118.846 554.027 118.897 553.828 118.772C552.087 117.684 550.524 116.708 549.104 115.851C548.974 115.773 548.806 115.805 548.713 115.925C543.789 122.233 538.032 126.872 532.687 129.228C532.142 129.469 532.199 130.279 532.787 130.376C534.158 130.602 535.565 130.72 537 130.72C551.138 130.72 562.611 119.313 562.718 105.2C562.719 105.134 562.719 105.067 562.719 105.001C562.719 104.888 562.719 104.776 562.717 104.664C562.664 100.536 561.639 96.6434 559.86 93.2032ZM526.634 100.926C526.5 100.794 526.277 100.816 526.175 100.974C525.587 101.891 525.038 102.807 524.528 103.718C522.057 108.179 520.55 112.542 520.003 116.289C519.482 119.867 519.931 122.418 520.745 124.072C521.209 125.014 522.031 125.772 523.056 125.998C524.715 126.364 527.298 126.064 530.91 124.191C534.984 122.078 539.514 118.331 543.622 113.256C543.743 113.106 543.688 112.879 543.512 112.8C537.799 110.232 534.787 111.465 529.238 117.663C529.084 117.835 528.822 117.867 528.635 117.731L527.406 116.838C527.219 116.702 527.168 116.443 527.284 116.243C531.644 108.74 531.541 105.771 526.634 100.926ZM537 79.2813C522.908 79.2813 511.463 90.6147 511.283 104.664C511.281 104.776 511.281 104.888 511.281 105.001C511.281 105.067 511.281 105.134 511.282 105.2C511.315 109.586 512.446 113.712 514.414 117.314C514.696 117.83 515.469 117.631 515.532 117.047C516.032 112.432 517.859 107.055 520.892 101.643C521.557 100.444 522.284 99.2447 523.07 98.0531C523.153 97.9269 523.13 97.7584 523.015 97.6602C521.633 96.4804 520.056 95.1722 518.279 93.6842C518.099 93.5328 518.066 93.2674 518.204 93.0767L519.787 90.8991C519.925 90.7084 520.188 90.6576 520.387 90.7826C522.349 92.0105 524.078 93.1053 525.625 94.0536C525.755 94.1329 525.923 94.1024 526.017 93.9836C526.157 93.8068 526.297 93.6313 526.439 93.4573C531.201 87.5487 536.62 83.1505 541.628 80.8168C542.158 80.5696 542.097 79.7794 541.52 79.6772C540.053 79.417 538.542 79.2813 537 79.2813ZM550.786 83.6833C548.958 83.2114 546.211 83.4717 542.523 85.294C538.456 87.3032 533.801 91.1162 529.747 96.0307C529.627 96.176 529.675 96.3965 529.842 96.4831C535.976 99.6614 538.831 98.8456 544.625 92.376C544.779 92.2039 545.041 92.1719 545.228 92.3077L546.457 93.2005C546.644 93.3363 546.695 93.5954 546.579 93.7952C542.395 100.995 542.157 104.239 546.377 108.886C546.507 109.029 546.738 109.012 546.844 108.851C550.52 103.275 552.75 97.6904 553.514 93.0782C553.972 89.6738 553.803 87.3882 553.197 85.8579C552.778 84.7999 551.887 83.9678 550.786 83.6833Z" fill="#0A0A0A" fill-opacity="0.05"/>
<rect x="326" y="177.551" width="421" height="31.1391" rx="9.01499" fill="white"/>
<path d="M477.698 195.875C477.193 195.875 476.821 195.759 476.582 195.526C476.343 195.294 476.223 194.931 476.223 194.44V189.328H477.279V194.36C477.279 194.606 477.333 194.775 477.439 194.868C477.545 194.961 477.708 195.008 477.927 195.008H478.684V195.875H477.698ZM475.416 191.441V190.574H478.684V191.441H475.416Z" fill="#0A0A0A" fill-opacity="0.55"/>
<path d="M469.84 195.875L471.763 193.165L469.92 190.574H471.095L472.401 192.477L473.666 190.574H474.872L473.048 193.185L474.952 195.875H473.776L472.411 193.853L471.036 195.875H469.84Z" fill="#0A0A0A" fill-opacity="0.55"/>
<path d="M467.105 195.995C466.587 195.995 466.138 195.882 465.76 195.657C465.388 195.431 465.099 195.108 464.893 194.69C464.693 194.271 464.594 193.783 464.594 193.225C464.594 192.667 464.693 192.182 464.893 191.77C465.099 191.352 465.388 191.03 465.76 190.804C466.132 190.571 466.57 190.455 467.075 190.455C467.553 190.455 467.975 190.568 468.34 190.794C468.706 191.013 468.988 191.332 469.187 191.75C469.393 192.169 469.496 192.674 469.496 193.265V193.534H465.69C465.716 194.052 465.853 194.441 466.098 194.7C466.351 194.959 466.69 195.089 467.115 195.089C467.427 195.089 467.686 195.015 467.892 194.869C468.098 194.723 468.241 194.527 468.32 194.281L469.417 194.351C469.277 194.843 469.001 195.241 468.59 195.547C468.184 195.846 467.689 195.995 467.105 195.995ZM465.69 192.737H468.38C468.347 192.265 468.211 191.917 467.972 191.691C467.739 191.465 467.44 191.352 467.075 191.352C466.696 191.352 466.384 191.471 466.138 191.711C465.899 191.943 465.75 192.285 465.69 192.737Z" fill="#0A0A0A" fill-opacity="0.55"/>
<path d="M463.014 195.875C462.509 195.875 462.137 195.759 461.898 195.526C461.659 195.294 461.54 194.931 461.54 194.44V189.328H462.596V194.36C462.596 194.606 462.649 194.775 462.755 194.868C462.862 194.961 463.024 195.008 463.243 195.008H464.001V195.875H463.014ZM460.732 191.441V190.574H464.001V191.441H460.732Z" fill="#0A0A0A" fill-opacity="0.55"/>
<path d="M455.473 195.876V190.575H456.439L456.479 191.99L456.35 191.92C456.409 191.574 456.522 191.295 456.688 191.083C456.854 190.87 457.057 190.714 457.296 190.615C457.535 190.508 457.794 190.455 458.073 190.455C458.472 190.455 458.801 190.545 459.06 190.724C459.326 190.897 459.525 191.136 459.658 191.442C459.797 191.74 459.867 192.083 459.867 192.468V195.876H458.811V192.787C458.811 192.475 458.778 192.212 458.711 192C458.645 191.787 458.535 191.624 458.382 191.511C458.229 191.398 458.03 191.342 457.784 191.342C457.412 191.342 457.11 191.465 456.878 191.711C456.645 191.956 456.529 192.315 456.529 192.787V195.876H455.473Z" fill="#0A0A0A" fill-opacity="0.55"/>
<path d="M451.896 195.995C451.391 195.995 450.949 195.882 450.571 195.657C450.192 195.431 449.9 195.108 449.694 194.69C449.488 194.271 449.385 193.783 449.385 193.225C449.385 192.661 449.488 192.172 449.694 191.76C449.9 191.349 450.192 191.03 450.571 190.804C450.949 190.571 451.391 190.455 451.896 190.455C452.401 190.455 452.842 190.571 453.221 190.804C453.6 191.03 453.892 191.349 454.098 191.76C454.304 192.172 454.407 192.661 454.407 193.225C454.407 193.783 454.304 194.271 454.098 194.69C453.892 195.108 453.6 195.431 453.221 195.657C452.842 195.882 452.401 195.995 451.896 195.995ZM451.896 195.079C452.348 195.079 452.696 194.916 452.942 194.59C453.188 194.258 453.311 193.803 453.311 193.225C453.311 192.647 453.188 192.196 452.942 191.87C452.696 191.538 452.348 191.372 451.896 191.372C451.451 191.372 451.102 191.538 450.85 191.87C450.604 192.196 450.481 192.647 450.481 193.225C450.481 193.803 450.604 194.258 450.85 194.59C451.102 194.916 451.451 195.079 451.896 195.079Z" fill="#0A0A0A" fill-opacity="0.55"/>
<path d="M446.378 195.995C445.873 195.995 445.432 195.882 445.053 195.657C444.674 195.431 444.382 195.108 444.176 194.69C443.97 194.271 443.867 193.783 443.867 193.225C443.867 192.667 443.97 192.182 444.176 191.77C444.382 191.352 444.674 191.03 445.053 190.804C445.432 190.571 445.873 190.455 446.378 190.455C446.81 190.455 447.192 190.531 447.524 190.684C447.863 190.83 448.135 191.046 448.341 191.332C448.554 191.618 448.69 191.966 448.75 192.378L447.644 192.438C447.591 192.093 447.451 191.83 447.225 191.651C446.999 191.465 446.717 191.372 446.378 191.372C445.933 191.372 445.584 191.538 445.332 191.87C445.086 192.196 444.963 192.647 444.963 193.225C444.963 193.803 445.086 194.258 445.332 194.59C445.584 194.916 445.933 195.079 446.378 195.079C446.717 195.079 446.999 194.986 447.225 194.8C447.451 194.607 447.591 194.318 447.644 193.933L448.75 193.992C448.69 194.398 448.554 194.75 448.341 195.049C448.135 195.348 447.863 195.58 447.524 195.746C447.192 195.912 446.81 195.995 446.378 195.995Z" fill="#0A0A0A" fill-opacity="0.55"/>
<path d="M437.852 195.875V190.574H438.818L438.858 191.979L438.768 191.949C438.841 191.471 438.988 191.122 439.207 190.903C439.433 190.684 439.735 190.574 440.114 190.574H440.622V191.521H440.114C439.848 191.521 439.625 191.564 439.446 191.65C439.267 191.737 439.13 191.87 439.037 192.049C438.951 192.228 438.908 192.461 438.908 192.746V195.875H437.852Z" fill="#0A0A0A" fill-opacity="0.55"/>
<path d="M434.273 195.995C433.768 195.995 433.326 195.882 432.947 195.657C432.569 195.431 432.277 195.108 432.071 194.69C431.865 194.271 431.762 193.783 431.762 193.225C431.762 192.661 431.865 192.172 432.071 191.76C432.277 191.349 432.569 191.03 432.947 190.804C433.326 190.571 433.768 190.455 434.273 190.455C434.778 190.455 435.219 190.571 435.598 190.804C435.977 191.03 436.269 191.349 436.475 191.76C436.681 192.172 436.784 192.661 436.784 193.225C436.784 193.783 436.681 194.271 436.475 194.69C436.269 195.108 435.977 195.431 435.598 195.657C435.219 195.882 434.778 195.995 434.273 195.995ZM434.273 195.079C434.724 195.079 435.073 194.916 435.319 194.59C435.565 194.258 435.688 193.803 435.688 193.225C435.688 192.647 435.565 192.196 435.319 191.87C435.073 191.538 434.724 191.372 434.273 191.372C433.828 191.372 433.479 191.538 433.227 191.87C432.981 192.196 432.858 192.647 432.858 193.225C432.858 193.803 432.981 194.258 433.227 194.59C433.479 194.916 433.828 195.079 434.273 195.079Z" fill="#0A0A0A" fill-opacity="0.55"/>
<path d="M428.94 195.876V190.236C428.94 189.797 429.063 189.448 429.309 189.189C429.555 188.93 429.94 188.801 430.465 188.801H431.402V189.668H430.605C430.399 189.668 430.246 189.724 430.146 189.837C430.047 189.943 429.997 190.096 429.997 190.295V195.876H428.94ZM428.203 191.501V190.644H431.322V191.501H428.203Z" fill="#0A0A0A" fill-opacity="0.55"/>
<path d="M422.474 196.573C422.122 196.719 421.756 196.829 421.378 196.902C421.006 196.975 420.61 197.012 420.192 197.012C419.408 197.012 418.737 196.869 418.179 196.583C417.621 196.297 417.192 195.886 416.894 195.347C416.601 194.803 416.455 194.152 416.455 193.394C416.455 192.717 416.561 192.099 416.774 191.541C416.993 190.976 417.302 190.491 417.701 190.086C418.106 189.674 418.584 189.359 419.136 189.14C419.687 188.914 420.298 188.801 420.969 188.801C421.74 188.801 422.411 188.947 422.982 189.239C423.56 189.532 424.005 189.943 424.317 190.475C424.636 191.006 424.795 191.631 424.795 192.348C424.795 192.893 424.712 193.371 424.546 193.783C424.38 194.188 424.151 194.504 423.859 194.73C423.566 194.956 423.228 195.068 422.842 195.068C422.51 195.068 422.241 194.975 422.035 194.789C421.829 194.603 421.716 194.351 421.696 194.032L421.876 193.992C421.803 194.198 421.68 194.388 421.507 194.56C421.334 194.733 421.135 194.869 420.909 194.969C420.683 195.068 420.451 195.118 420.212 195.118C419.826 195.118 419.498 195.042 419.225 194.889C418.959 194.736 418.757 194.524 418.617 194.251C418.478 193.972 418.408 193.65 418.408 193.285C418.408 192.833 418.494 192.425 418.667 192.059C418.84 191.694 419.082 191.405 419.395 191.192C419.713 190.98 420.082 190.873 420.501 190.873C420.859 190.873 421.165 190.953 421.417 191.113C421.67 191.272 421.829 191.481 421.896 191.74L421.756 191.81L421.826 190.903H422.693L422.523 192.956C422.517 193.102 422.504 193.265 422.484 193.444C422.47 193.624 422.464 193.773 422.464 193.893C422.464 194.032 422.504 194.142 422.583 194.221C422.663 194.301 422.783 194.341 422.942 194.341C423.267 194.341 423.523 194.172 423.709 193.833C423.902 193.487 423.998 193.012 423.998 192.408C423.998 191.79 423.882 191.269 423.649 190.844C423.417 190.418 423.072 190.099 422.613 189.887C422.161 189.668 421.603 189.558 420.939 189.558C420.388 189.558 419.886 189.651 419.434 189.837C418.983 190.016 418.594 190.276 418.269 190.614C417.943 190.946 417.691 191.345 417.511 191.81C417.339 192.275 417.252 192.793 417.252 193.365C417.252 193.976 417.365 194.497 417.591 194.929C417.824 195.361 418.162 195.69 418.607 195.915C419.052 196.141 419.591 196.254 420.222 196.254C420.594 196.254 420.952 196.218 421.298 196.145C421.643 196.078 421.972 195.979 422.284 195.846L422.474 196.573ZM420.381 194.351C420.68 194.351 420.926 194.278 421.118 194.132C421.311 193.979 421.454 193.786 421.547 193.554C421.647 193.315 421.696 193.062 421.696 192.797C421.696 192.577 421.66 192.381 421.587 192.209C421.514 192.029 421.401 191.89 421.248 191.79C421.095 191.69 420.893 191.641 420.64 191.641C420.368 191.641 420.139 191.714 419.953 191.86C419.767 191.999 419.624 192.189 419.524 192.428C419.424 192.66 419.375 192.923 419.375 193.215C419.375 193.541 419.451 193.813 419.604 194.032C419.757 194.245 420.016 194.351 420.381 194.351Z" fill="#0A0A0A" fill-opacity="0.55"/>
<path d="M411.94 197.439L412.439 195.875H411.891V194.619H413.176V195.725L412.548 197.439H411.94Z" fill="#0A0A0A" fill-opacity="0.55"/>
<path d="M406.342 195.876V188.801H407.398V193.195L409.78 190.574H411.115L409.042 192.807L411.195 195.876H409.979L408.335 193.464L407.398 194.461V195.876H406.342Z" fill="#0A0A0A" fill-opacity="0.55"/>
<path d="M403.1 195.995C402.602 195.995 402.18 195.919 401.835 195.766C401.496 195.613 401.233 195.404 401.047 195.138C400.861 194.866 400.755 194.554 400.729 194.202L401.815 194.152C401.868 194.444 401.994 194.677 402.193 194.849C402.393 195.022 402.695 195.108 403.1 195.108C403.432 195.108 403.695 195.055 403.887 194.949C404.08 194.843 404.176 194.673 404.176 194.441C404.176 194.315 404.143 194.208 404.077 194.122C404.017 194.029 403.897 193.953 403.718 193.893C403.539 193.826 403.273 193.763 402.921 193.704C402.396 193.604 401.984 193.488 401.685 193.355C401.386 193.222 401.174 193.052 401.047 192.847C400.921 192.641 400.858 192.392 400.858 192.099C400.858 191.614 401.037 191.219 401.396 190.913C401.761 190.608 402.286 190.455 402.971 190.455C403.429 190.455 403.814 190.535 404.126 190.694C404.439 190.847 404.681 191.056 404.854 191.322C405.033 191.581 405.146 191.873 405.193 192.199L404.106 192.259C404.073 192.073 404.007 191.913 403.907 191.78C403.814 191.641 403.688 191.535 403.529 191.461C403.369 191.382 403.18 191.342 402.961 191.342C402.622 191.342 402.369 191.408 402.203 191.541C402.037 191.674 401.954 191.847 401.954 192.059C401.954 192.219 401.991 192.348 402.064 192.448C402.143 192.548 402.27 192.631 402.442 192.697C402.615 192.757 402.844 192.81 403.13 192.857C403.681 192.95 404.113 193.066 404.425 193.205C404.738 193.338 404.957 193.504 405.083 193.704C405.209 193.903 405.272 194.145 405.272 194.431C405.272 194.763 405.179 195.045 404.993 195.278C404.807 195.51 404.552 195.69 404.226 195.816C403.901 195.936 403.525 195.995 403.1 195.995Z" fill="#0A0A0A" fill-opacity="0.55"/>
<path d="M396.978 195.995C396.426 195.995 395.984 195.869 395.652 195.617C395.327 195.364 395.164 195.009 395.164 194.55C395.164 194.092 395.3 193.737 395.573 193.484C395.852 193.225 396.28 193.039 396.858 192.926L398.682 192.578C398.682 192.166 398.585 191.86 398.393 191.661C398.2 191.455 397.914 191.352 397.536 191.352C397.197 191.352 396.931 191.428 396.738 191.581C396.546 191.727 396.413 191.946 396.34 192.239L395.254 192.169C395.353 191.638 395.599 191.219 395.991 190.913C396.39 190.608 396.905 190.455 397.536 190.455C398.253 190.455 398.798 190.648 399.17 191.033C399.548 191.412 399.738 191.946 399.738 192.637V194.7C399.738 194.826 399.758 194.916 399.798 194.969C399.844 195.015 399.917 195.039 400.017 195.039H400.206V195.876C400.173 195.882 400.12 195.889 400.047 195.896C399.974 195.902 399.897 195.906 399.817 195.906C399.592 195.906 399.396 195.869 399.23 195.796C399.07 195.723 398.951 195.603 398.871 195.437C398.791 195.265 398.751 195.035 398.751 194.75L398.861 194.8C398.808 195.032 398.691 195.238 398.512 195.417C398.339 195.597 398.117 195.74 397.845 195.846C397.579 195.946 397.29 195.995 396.978 195.995ZM397.147 195.158C397.466 195.158 397.738 195.099 397.964 194.979C398.19 194.853 398.366 194.68 398.492 194.461C398.618 194.242 398.682 193.992 398.682 193.713V193.375L397.127 193.674C396.808 193.733 396.582 193.83 396.449 193.963C396.323 194.089 396.26 194.252 396.26 194.451C396.26 194.677 396.337 194.853 396.489 194.979C396.649 195.099 396.868 195.158 397.147 195.158Z" fill="#0A0A0A" fill-opacity="0.55"/>
<path d="M393.526 195.875C393.021 195.875 392.649 195.759 392.41 195.526C392.171 195.294 392.051 194.931 392.051 194.44V189.328H393.108V194.36C393.108 194.606 393.161 194.775 393.267 194.868C393.373 194.961 393.536 195.008 393.755 195.008H394.512V195.875H393.526ZM391.244 191.441V190.574H394.512V191.441H391.244Z" fill="#0A0A0A" fill-opacity="0.55"/>
<path d="M384.919 195.995C384.368 195.995 383.926 195.869 383.594 195.617C383.268 195.364 383.105 195.009 383.105 194.55C383.105 194.092 383.242 193.737 383.514 193.484C383.793 193.225 384.221 193.039 384.799 192.926L386.623 192.578C386.623 192.166 386.527 191.86 386.334 191.661C386.141 191.455 385.856 191.352 385.477 191.352C385.138 191.352 384.873 191.428 384.68 191.581C384.487 191.727 384.354 191.946 384.281 192.239L383.195 192.169C383.295 191.638 383.541 191.219 383.933 190.913C384.331 190.608 384.846 190.455 385.477 190.455C386.194 190.455 386.739 190.648 387.111 191.033C387.49 191.412 387.679 191.946 387.679 192.637V194.7C387.679 194.826 387.699 194.916 387.739 194.969C387.785 195.015 387.859 195.039 387.958 195.039H388.148V195.876C388.114 195.882 388.061 195.889 387.988 195.896C387.915 195.902 387.839 195.906 387.759 195.906C387.533 195.906 387.337 195.869 387.171 195.796C387.012 195.723 386.892 195.603 386.812 195.437C386.733 195.265 386.693 195.035 386.693 194.75L386.802 194.8C386.749 195.032 386.633 195.238 386.454 195.417C386.281 195.597 386.058 195.74 385.786 195.846C385.52 195.946 385.231 195.995 384.919 195.995ZM385.088 195.158C385.407 195.158 385.68 195.099 385.905 194.979C386.131 194.853 386.307 194.68 386.434 194.461C386.56 194.242 386.623 193.992 386.623 193.713V193.375L385.068 193.674C384.75 193.733 384.524 193.83 384.391 193.963C384.265 194.089 384.202 194.252 384.202 194.451C384.202 194.677 384.278 194.853 384.431 194.979C384.59 195.099 384.809 195.158 385.088 195.158Z" fill="#0A0A0A" fill-opacity="0.55"/>
<path d="M377.337 195.995C376.832 195.995 376.391 195.882 376.012 195.657C375.633 195.431 375.341 195.108 375.135 194.69C374.929 194.271 374.826 193.783 374.826 193.225C374.826 192.661 374.929 192.172 375.135 191.76C375.341 191.349 375.633 191.03 376.012 190.804C376.391 190.571 376.832 190.455 377.337 190.455C377.842 190.455 378.284 190.571 378.663 190.804C379.041 191.03 379.333 191.349 379.539 191.76C379.745 192.172 379.848 192.661 379.848 193.225C379.848 193.783 379.745 194.271 379.539 194.69C379.333 195.108 379.041 195.431 378.663 195.657C378.284 195.882 377.842 195.995 377.337 195.995ZM377.337 195.079C377.789 195.079 378.138 194.916 378.383 194.59C378.629 194.258 378.752 193.803 378.752 193.225C378.752 192.647 378.629 192.196 378.383 191.87C378.138 191.538 377.789 191.372 377.337 191.372C376.892 191.372 376.543 191.538 376.291 191.87C376.045 192.196 375.922 192.647 375.922 193.225C375.922 193.803 376.045 194.258 376.291 194.59C376.543 194.916 376.892 195.079 377.337 195.079Z" fill="#0A0A0A" fill-opacity="0.55"/>
<path d="M371.071 195.995C370.62 195.995 370.225 195.882 369.886 195.656C369.554 195.43 369.298 195.112 369.118 194.7C368.946 194.281 368.859 193.79 368.859 193.225C368.859 192.66 368.949 192.172 369.128 191.76C369.308 191.342 369.564 191.02 369.896 190.794C370.228 190.568 370.62 190.455 371.071 190.455C371.437 190.455 371.762 190.531 372.048 190.684C372.334 190.837 372.55 191.049 372.696 191.322V188.801H373.752V195.876H372.765L372.736 195.078C372.589 195.364 372.367 195.59 372.068 195.756C371.776 195.915 371.443 195.995 371.071 195.995ZM371.35 195.078C371.636 195.078 371.879 195.005 372.078 194.859C372.277 194.713 372.43 194.5 372.536 194.221C372.643 193.942 372.696 193.61 372.696 193.225C372.696 192.826 372.643 192.491 372.536 192.219C372.43 191.94 372.277 191.73 372.078 191.591C371.879 191.445 371.636 191.372 371.35 191.372C370.925 191.372 370.587 191.538 370.334 191.87C370.082 192.195 369.955 192.647 369.955 193.225C369.955 193.796 370.082 194.248 370.334 194.58C370.587 194.912 370.925 195.078 371.35 195.078Z" fill="#0A0A0A" fill-opacity="0.55"/>
<path d="M363.091 195.995C362.586 195.995 362.145 195.882 361.766 195.657C361.387 195.431 361.095 195.108 360.889 194.69C360.683 194.271 360.58 193.783 360.58 193.225C360.58 192.661 360.683 192.172 360.889 191.76C361.095 191.349 361.387 191.03 361.766 190.804C362.145 190.571 362.586 190.455 363.091 190.455C363.596 190.455 364.038 190.571 364.416 190.804C364.795 191.03 365.087 191.349 365.293 191.76C365.499 192.172 365.602 192.661 365.602 193.225C365.602 193.783 365.499 194.271 365.293 194.69C365.087 195.108 364.795 195.431 364.416 195.657C364.038 195.882 363.596 195.995 363.091 195.995ZM363.091 195.079C363.543 195.079 363.892 194.916 364.137 194.59C364.383 194.258 364.506 193.803 364.506 193.225C364.506 192.647 364.383 192.196 364.137 191.87C363.892 191.538 363.543 191.372 363.091 191.372C362.646 191.372 362.297 191.538 362.045 191.87C361.799 192.196 361.676 192.647 361.676 193.225C361.676 193.803 361.799 194.258 362.045 194.59C362.297 194.916 362.646 195.079 363.091 195.079Z" fill="#0A0A0A" fill-opacity="0.55"/>
<path d="M359.001 195.875C358.496 195.875 358.124 195.759 357.885 195.526C357.645 195.294 357.526 194.931 357.526 194.44V189.328H358.582V194.36C358.582 194.606 358.635 194.775 358.742 194.868C358.848 194.961 359.011 195.008 359.23 195.008H359.987V195.875H359.001ZM356.719 191.441V190.574H359.987V191.441H356.719Z" fill="#0A0A0A" fill-opacity="0.55"/>
<path d="M348.473 195.876V188.801H349.529V193.195L351.91 190.574H353.246L351.173 192.807L353.325 195.876H352.11L350.466 193.464L349.529 194.461V195.876H348.473Z" fill="#0A0A0A" fill-opacity="0.55"/>
<path d="M345.231 195.995C344.733 195.995 344.311 195.919 343.965 195.766C343.627 195.613 343.364 195.404 343.178 195.138C342.992 194.866 342.886 194.554 342.859 194.202L343.946 194.152C343.999 194.444 344.125 194.677 344.324 194.849C344.523 195.022 344.826 195.108 345.231 195.108C345.563 195.108 345.825 195.055 346.018 194.949C346.211 194.843 346.307 194.673 346.307 194.441C346.307 194.315 346.274 194.208 346.207 194.122C346.148 194.029 346.028 193.953 345.849 193.893C345.669 193.826 345.404 193.763 345.052 193.704C344.527 193.604 344.115 193.488 343.816 193.355C343.517 193.222 343.304 193.052 343.178 192.847C343.052 192.641 342.989 192.392 342.989 192.099C342.989 191.614 343.168 191.219 343.527 190.913C343.892 190.608 344.417 190.455 345.101 190.455C345.56 190.455 345.945 190.535 346.257 190.694C346.569 190.847 346.812 191.056 346.985 191.322C347.164 191.581 347.277 191.873 347.323 192.199L346.237 192.259C346.204 192.073 346.138 191.913 346.038 191.78C345.945 191.641 345.819 191.535 345.659 191.461C345.5 191.382 345.311 191.342 345.091 191.342C344.753 191.342 344.5 191.408 344.334 191.541C344.168 191.674 344.085 191.847 344.085 192.059C344.085 192.219 344.122 192.348 344.195 192.448C344.274 192.548 344.401 192.631 344.573 192.697C344.746 192.757 344.975 192.81 345.261 192.857C345.812 192.95 346.244 193.066 346.556 193.205C346.868 193.338 347.088 193.504 347.214 193.704C347.34 193.903 347.403 194.145 347.403 194.431C347.403 194.763 347.31 195.045 347.124 195.278C346.938 195.51 346.682 195.69 346.357 195.816C346.031 195.936 345.656 195.995 345.231 195.995Z" fill="#0A0A0A" fill-opacity="0.55"/>
<path d="M335.965 195.876L338.516 188.801H339.881L342.432 195.876H341.286L340.638 194.032H337.748L337.111 195.876H335.965ZM338.087 193.056H340.309L339.193 189.827L338.087 193.056Z" fill="#0A0A0A" fill-opacity="0.55"/>
<path d="M601 190.819C601 188.755 602.673 187.082 604.737 187.082H615.963C618.026 187.082 619.699 188.755 619.699 190.819V195.801C619.699 197.865 618.026 199.538 615.963 199.538H604.737C602.673 199.538 601 197.865 601 195.801V190.819Z" fill="#0A0A0A" fill-opacity="0.05"/>
<path d="M614.457 195.866C614.287 195.866 614.131 195.842 613.989 195.793C613.846 195.742 613.719 195.669 613.607 195.575C613.498 195.48 613.409 195.366 613.34 195.234H613.283V195.806H612.57V190.752H613.283V192.749H613.34C613.404 192.617 613.492 192.505 613.604 192.411C613.715 192.317 613.844 192.245 613.989 192.194C614.134 192.14 614.29 192.113 614.457 192.113C614.762 192.113 615.028 192.19 615.253 192.344C615.478 192.496 615.652 192.712 615.775 192.993C615.9 193.272 615.962 193.603 615.962 193.987V193.993C615.962 194.375 615.9 194.706 615.775 194.987C615.652 195.268 615.478 195.485 615.253 195.639C615.028 195.791 614.762 195.866 614.457 195.866ZM614.256 195.254C614.461 195.254 614.636 195.204 614.781 195.104C614.926 195.001 615.038 194.856 615.116 194.669C615.194 194.479 615.233 194.254 615.233 193.993V193.987C615.233 193.726 615.194 193.502 615.116 193.314C615.038 193.125 614.926 192.98 614.781 192.879C614.636 192.777 614.461 192.726 614.256 192.726C614.053 192.726 613.878 192.777 613.731 192.879C613.584 192.982 613.47 193.127 613.39 193.314C613.31 193.502 613.269 193.726 613.269 193.987V193.993C613.269 194.252 613.308 194.476 613.386 194.666C613.467 194.855 613.581 195.001 613.728 195.104C613.877 195.204 614.053 195.254 614.256 195.254Z" fill="#0A0A0A" fill-opacity="0.85"/>
<path d="M609.665 195.865C609.435 195.865 609.229 195.822 609.046 195.735C608.866 195.646 608.723 195.521 608.618 195.36C608.513 195.197 608.461 195.006 608.461 194.785V194.778C608.461 194.562 608.513 194.377 608.618 194.223C608.725 194.067 608.879 193.945 609.08 193.858C609.283 193.769 609.528 193.717 609.816 193.701L611.154 193.621V194.129L609.909 194.209C609.657 194.223 609.472 194.275 609.354 194.367C609.236 194.458 609.177 194.585 609.177 194.748V194.755C609.177 194.924 609.24 195.057 609.367 195.153C609.497 195.246 609.66 195.293 609.856 195.293C610.039 195.293 610.2 195.256 610.341 195.183C610.484 195.109 610.595 195.01 610.675 194.885C610.758 194.76 610.799 194.62 610.799 194.464V193.32C610.799 193.119 610.737 192.965 610.612 192.858C610.487 192.751 610.301 192.698 610.053 192.698C609.85 192.698 609.684 192.733 609.555 192.805C609.428 192.876 609.342 192.976 609.297 193.106L609.294 193.119H608.605L608.608 193.092C608.637 192.894 608.716 192.721 608.846 192.574C608.975 192.427 609.146 192.312 609.357 192.229C609.569 192.147 609.812 192.105 610.087 192.105C610.39 192.105 610.647 192.155 610.859 192.253C611.071 192.349 611.232 192.488 611.341 192.671C611.452 192.851 611.508 193.068 611.508 193.32V195.805H610.799V195.29H610.742C610.673 195.41 610.585 195.514 610.478 195.601C610.371 195.688 610.249 195.754 610.113 195.798C609.977 195.843 609.828 195.865 609.665 195.865Z" fill="#0A0A0A" fill-opacity="0.85"/>
<path d="M606.258 195.805V191.617H604.736V190.979H608.516V191.617H606.994V195.805H606.258Z" fill="#0A0A0A" fill-opacity="0.85"/>
<path d="M651.486 195.937V190.631H652.279V192.858L652.181 192.843C652.226 192.619 652.308 192.437 652.428 192.297C652.548 192.153 652.695 192.046 652.869 191.976C653.043 191.906 653.235 191.871 653.444 191.871C653.733 191.871 653.977 191.936 654.177 192.066C654.376 192.19 654.525 192.367 654.625 192.596C654.73 192.826 654.782 193.087 654.782 193.381V195.937H653.99V193.59C653.99 193.232 653.928 192.968 653.803 192.798C653.683 192.624 653.494 192.537 653.235 192.537C652.946 192.537 652.714 192.629 652.54 192.813C652.366 192.992 652.279 193.257 652.279 193.605V195.937H651.486Z" fill="#0A0A0A" fill-opacity="0.25"/>
<path d="M648.985 196.026C648.606 196.026 648.275 195.942 647.991 195.772C647.707 195.603 647.488 195.361 647.333 195.047C647.179 194.733 647.102 194.367 647.102 193.949C647.102 193.53 647.179 193.166 647.333 192.858C647.488 192.544 647.707 192.302 647.991 192.133C648.275 191.958 648.606 191.871 648.985 191.871C649.309 191.871 649.595 191.928 649.844 192.043C650.098 192.153 650.303 192.315 650.457 192.529C650.617 192.743 650.719 193.005 650.764 193.313L649.934 193.358C649.894 193.099 649.789 192.902 649.62 192.768C649.451 192.628 649.239 192.559 648.985 192.559C648.651 192.559 648.389 192.683 648.2 192.932C648.016 193.176 647.924 193.515 647.924 193.949C647.924 194.382 648.016 194.723 648.2 194.973C648.389 195.217 648.651 195.339 648.985 195.339C649.239 195.339 649.451 195.269 649.62 195.129C649.789 194.985 649.894 194.768 649.934 194.479L650.764 194.524C650.719 194.828 650.617 195.092 650.457 195.316C650.303 195.541 650.098 195.715 649.844 195.839C649.595 195.964 649.309 196.026 648.985 196.026Z" fill="#0A0A0A" fill-opacity="0.25"/>
<path d="M645.916 195.937C645.538 195.937 645.259 195.85 645.079 195.676C644.9 195.501 644.81 195.23 644.81 194.861V191.027H645.603V194.801C645.603 194.986 645.642 195.113 645.722 195.183C645.802 195.252 645.924 195.287 646.088 195.287H646.656V195.937H645.916ZM644.205 192.612V191.962H646.656V192.612H644.205Z" fill="#0A0A0A" fill-opacity="0.25"/>
<path d="M642.751 195.937V191.961H643.543V195.937H642.751ZM642.736 191.386V190.594H643.558V191.386H642.736Z" fill="#0A0A0A" fill-opacity="0.25"/>
<path d="M637.443 195.937L636.232 191.961H637.062L637.914 195.07L638.788 191.961H639.536L640.41 195.07L641.269 191.961H642.099L640.888 195.937H639.999L639.162 193.097L638.325 195.937H637.443Z" fill="#0A0A0A" fill-opacity="0.25"/>
<path d="M634.322 196.026C633.948 196.026 633.632 195.969 633.373 195.854C633.118 195.74 632.922 195.583 632.782 195.384C632.643 195.179 632.563 194.945 632.543 194.681L633.358 194.644C633.397 194.863 633.492 195.037 633.642 195.167C633.791 195.296 634.018 195.361 634.322 195.361C634.571 195.361 634.768 195.321 634.912 195.242C635.057 195.162 635.129 195.035 635.129 194.86C635.129 194.766 635.104 194.686 635.054 194.621C635.009 194.552 634.92 194.494 634.785 194.449C634.65 194.4 634.451 194.352 634.187 194.307C633.794 194.233 633.485 194.145 633.26 194.046C633.036 193.946 632.877 193.819 632.782 193.665C632.687 193.51 632.64 193.323 632.64 193.104C632.64 192.74 632.775 192.444 633.044 192.215C633.318 191.986 633.711 191.871 634.224 191.871C634.568 191.871 634.857 191.931 635.091 192.05C635.326 192.165 635.507 192.322 635.637 192.521C635.771 192.716 635.856 192.935 635.891 193.179L635.076 193.224C635.052 193.084 635.002 192.965 634.927 192.865C634.857 192.76 634.763 192.681 634.643 192.626C634.523 192.566 634.381 192.536 634.217 192.536C633.963 192.536 633.774 192.586 633.649 192.686C633.524 192.785 633.462 192.915 633.462 193.074C633.462 193.194 633.49 193.291 633.544 193.366C633.604 193.441 633.699 193.503 633.828 193.553C633.958 193.597 634.13 193.637 634.344 193.672C634.758 193.742 635.081 193.829 635.316 193.934C635.55 194.033 635.714 194.158 635.809 194.307C635.903 194.457 635.951 194.639 635.951 194.853C635.951 195.102 635.881 195.314 635.742 195.488C635.602 195.663 635.41 195.797 635.166 195.892C634.922 195.981 634.64 196.026 634.322 196.026Z" fill="#0A0A0A" fill-opacity="0.25"/>
<path d="M628.215 196.026C627.837 196.026 627.505 195.942 627.221 195.772C626.937 195.603 626.718 195.361 626.564 195.047C626.409 194.733 626.332 194.367 626.332 193.949C626.332 193.525 626.409 193.159 626.564 192.85C626.718 192.541 626.937 192.302 627.221 192.133C627.505 191.958 627.837 191.871 628.215 191.871C628.594 191.871 628.925 191.958 629.209 192.133C629.493 192.302 629.712 192.541 629.867 192.85C630.021 193.159 630.099 193.525 630.099 193.949C630.099 194.367 630.021 194.733 629.867 195.047C629.712 195.361 629.493 195.603 629.209 195.772C628.925 195.942 628.594 196.026 628.215 196.026ZM628.215 195.339C628.554 195.339 628.816 195.217 629 194.973C629.184 194.723 629.277 194.382 629.277 193.949C629.277 193.515 629.184 193.176 629 192.932C628.816 192.683 628.554 192.559 628.215 192.559C627.882 192.559 627.62 192.683 627.431 192.932C627.246 193.176 627.154 193.515 627.154 193.949C627.154 194.382 627.246 194.723 627.431 194.973C627.62 195.217 627.882 195.339 628.215 195.339Z" fill="#0A0A0A" fill-opacity="0.25"/>
<path d="M625.147 195.937C624.768 195.937 624.489 195.85 624.31 195.676C624.131 195.501 624.041 195.23 624.041 194.861V191.027H624.833V194.801C624.833 194.986 624.873 195.113 624.953 195.183C625.032 195.252 625.154 195.287 625.319 195.287H625.887V195.937H625.147ZM623.436 192.612V191.962H625.887V192.612H623.436Z" fill="#0A0A0A" fill-opacity="0.25"/>
<path d="M661.01 193.311C661.01 190.438 661.01 189.002 661.475 187.867C662.107 186.323 663.333 185.097 664.877 184.465C666.011 184 667.448 184 670.321 184H730.169C733.042 184 734.479 184 735.613 184.465C737.157 185.097 738.383 186.323 739.015 187.867C739.48 189.002 739.48 190.438 739.48 193.311V193.311C739.48 196.184 739.48 197.621 739.015 198.756C738.383 200.299 737.157 201.525 735.613 202.157C734.479 202.622 733.042 202.622 730.169 202.622H670.321C667.448 202.622 666.011 202.622 664.877 202.157C663.333 201.525 662.107 200.299 661.475 198.756C661.01 197.621 661.01 196.184 661.01 193.311V193.311Z" fill="#0A0A0A" fill-opacity="0.08"/>
<path d="M690.221 195.897V190.727H690.993V192.583C691.196 192.139 691.619 191.935 692.129 191.935C692.973 191.935 693.432 192.54 693.432 193.406V195.897H692.66V193.61C692.66 192.918 692.42 192.583 691.925 192.583C691.357 192.583 690.993 192.948 690.993 193.625V195.897H690.221Z" fill="#0A0A0A" fill-opacity="0.55"/>
<path d="M687.784 195.984C686.67 195.984 685.949 195.183 685.949 193.96C685.949 192.737 686.67 191.936 687.784 191.936C688.724 191.936 689.386 192.445 689.517 193.341L688.709 193.385C688.629 192.882 688.272 192.605 687.784 192.605C687.129 192.605 686.75 193.108 686.75 193.96C686.75 194.812 687.129 195.314 687.784 195.314C688.279 195.314 688.636 195.038 688.709 194.477L689.517 194.521C689.394 195.409 688.731 195.984 687.784 195.984Z" fill="#0A0A0A" fill-opacity="0.55"/>
<path d="M683.615 195.896V192.021H684.322L684.343 192.757C684.489 192.247 684.795 192.021 685.268 192.021H685.64V192.713H685.268C684.678 192.713 684.387 192.997 684.387 193.609V195.896H683.615Z" fill="#0A0A0A" fill-opacity="0.55"/>
<path d="M680.603 195.984C679.794 195.984 679.277 195.598 679.277 194.928C679.277 194.266 679.663 193.909 680.515 193.741L681.848 193.487C681.848 192.889 681.564 192.591 681.01 192.591C680.515 192.591 680.239 192.817 680.137 193.239L679.343 193.188C679.489 192.416 680.093 191.936 681.01 191.936C682.059 191.936 682.62 192.525 682.62 193.53V195.038C682.62 195.227 682.678 195.285 682.824 195.285H682.962V195.897C682.911 195.912 682.795 195.919 682.678 195.919C682.241 195.919 681.979 195.759 681.913 195.322V195.3C681.717 195.708 681.207 195.984 680.603 195.984ZM680.726 195.373C681.426 195.373 681.848 194.936 681.848 194.317V194.069L680.712 194.288C680.246 194.375 680.078 194.557 680.078 194.856C680.078 195.191 680.311 195.373 680.726 195.373Z" fill="#0A0A0A" fill-opacity="0.55"/>
<path d="M676.909 195.984C675.781 195.984 675.074 195.183 675.074 193.96C675.074 192.737 675.781 191.936 676.887 191.936C677.943 191.936 678.657 192.686 678.657 193.989V194.186H675.875C675.912 194.943 676.298 195.322 676.917 195.322C677.368 195.322 677.674 195.096 677.798 194.732L678.599 194.783C678.395 195.504 677.761 195.984 676.909 195.984ZM675.875 193.603H677.841C677.79 192.919 677.412 192.591 676.887 192.591C676.334 192.591 675.963 192.948 675.875 193.603Z" fill="#0A0A0A" fill-opacity="0.55"/>
<path d="M672.41 196.013C671.172 196.013 670.4 195.292 670.312 194.229L671.121 194.178C671.215 194.898 671.652 195.299 672.424 195.299C673.087 195.299 673.48 195.044 673.48 194.556C673.48 194.119 673.254 193.85 672.111 193.573C670.873 193.275 670.422 192.918 670.422 192.109C670.422 191.221 671.099 190.609 672.213 190.609C673.393 190.609 674.07 191.316 674.187 192.292L673.378 192.335C673.305 191.738 672.905 191.323 672.199 191.323C671.601 191.323 671.23 191.629 671.23 192.08C671.23 192.532 671.485 192.699 672.49 192.94C673.83 193.253 674.288 193.755 674.288 194.513C674.288 195.437 673.524 196.013 672.41 196.013Z" fill="#0A0A0A" fill-opacity="0.55"/>
<path d="M700.244 193.31C700.244 191.481 700.244 190.567 700.487 189.827C700.969 188.363 702.117 187.215 703.581 186.734C704.32 186.49 705.235 186.49 707.064 186.49H730.168C731.997 186.49 732.912 186.49 733.651 186.734C735.115 187.215 736.263 188.363 736.745 189.827C736.988 190.567 736.988 191.481 736.988 193.31V193.31C736.988 195.139 736.988 196.054 736.745 196.793C736.263 198.257 735.115 199.405 733.651 199.887C732.912 200.13 731.997 200.13 730.168 200.13H707.064C705.235 200.13 704.32 200.13 703.581 199.887C702.117 199.405 700.969 198.257 700.487 196.793C700.244 196.054 700.244 195.139 700.244 193.31V193.31Z" fill="white"/>
<path d="M728.355 195.852V190.682H729.142V195.852H728.355Z" fill="#0A0A0A"/>
<path d="M723.018 195.852L724.882 190.682H725.879L727.744 195.852H726.906L726.433 194.505H724.321L723.855 195.852H723.018ZM724.569 193.791H726.193L725.377 191.432L724.569 193.791Z" fill="#0A0A0A"/>
<path d="M717.211 195.852V190.682H717.983V193.893L719.723 191.978H720.699L719.184 193.609L720.757 195.852H719.869L718.667 194.09L717.983 194.818V195.852H717.211Z" fill="#0A0A0A"/>
<path d="M714.864 195.939C713.735 195.939 713.189 195.393 713.131 194.629L713.925 194.592C713.997 195.022 714.245 195.291 714.864 195.291C715.345 195.291 715.614 195.146 715.614 194.803C715.614 194.519 715.468 194.396 714.733 194.265C713.604 194.053 713.269 193.726 713.269 193.092C713.269 192.386 713.815 191.891 714.828 191.891C715.898 191.891 716.357 192.488 716.43 193.165L715.636 193.209C715.607 192.845 715.381 192.539 714.813 192.539C714.311 192.539 714.07 192.757 714.07 193.063C714.07 193.405 714.26 193.544 714.886 193.646C716.058 193.842 716.415 194.163 716.415 194.796C716.415 195.524 715.789 195.939 714.864 195.939Z" fill="#0A0A0A"/>
<path d="M708.092 195.852L709.956 190.682H710.954L712.818 195.852H711.98L711.507 194.505H709.395L708.929 195.852H708.092ZM709.643 193.791H711.267L710.451 191.432L709.643 193.791Z" fill="#0A0A0A"/>
<path d="M259.139 20.0293C259.399 20.2896 259.399 20.7116 259.139 20.972C258.878 21.2323 258.456 21.2323 258.196 20.972L254.196 16.972C253.936 16.7116 253.936 16.2896 254.196 16.0293L258.196 12.0292C258.456 11.7689 258.878 11.7689 259.139 12.0292C259.399 12.2896 259.399 12.7116 259.139 12.972L255.61 16.5006L259.139 20.0293Z" fill="#0A0A0A" fill-opacity="0.55"/>
<path d="M278.861 12.9707C278.601 12.7104 278.601 12.2884 278.861 12.028C279.122 11.7677 279.544 11.7677 279.804 12.028L283.804 16.028C284.064 16.2884 284.064 16.7104 283.804 16.9707L279.804 20.9708C279.544 21.2311 279.122 21.2311 278.861 20.9708C278.601 20.7104 278.601 20.2884 278.861 20.028L282.39 16.4994L278.861 12.9707Z" fill="#0A0A0A" fill-opacity="0.55"/>
<path d="M298.609 16.5C298.609 13.8076 300.792 11.625 303.484 11.625C304.867 11.625 305.871 12.1257 306.75 12.9395V12.1667C306.75 11.8675 306.992 11.625 307.291 11.625C307.591 11.625 307.833 11.8675 307.833 12.1667V13.7917C307.833 14.39 307.348 14.875 306.75 14.875H305.125C304.826 14.875 304.583 14.6325 304.583 14.3333C304.583 14.0342 304.826 13.7917 305.125 13.7917H306.076C305.326 13.0768 304.553 12.7083 303.484 12.7083C301.39 12.7083 299.693 14.4059 299.693 16.5C299.693 18.5941 301.39 20.2917 303.484 20.2917C305.134 20.2917 306.539 19.2371 307.06 17.7637C307.16 17.4818 307.47 17.334 307.752 17.4336C308.034 17.5333 308.181 17.8429 308.082 18.125C307.413 20.0176 305.608 21.375 303.484 21.375C300.792 21.375 298.609 19.1924 298.609 16.5Z" fill="#0A0A0A" fill-opacity="0.55"/>
<rect x="320.5" y="13.5" width="138" height="6" rx="3" fill="#0A0A0A" fill-opacity="0.1"/>
<rect x="281" y="244" width="169" height="119" rx="10" fill="white" fill-opacity="0.85"/>
<path d="M284 285.8C284 281.32 284 279.079 284.872 277.368C285.639 275.863 286.863 274.639 288.368 273.872C290.079 273 292.32 273 296.8 273H434.2C438.68 273 440.921 273 442.632 273.872C444.137 274.639 445.361 275.863 446.128 277.368C447 279.079 447 281.32 447 285.8V347.2C447 351.68 447 353.921 446.128 355.632C445.361 357.137 444.137 358.361 442.632 359.128C440.921 360 438.68 360 434.2 360H296.8C292.32 360 290.079 360 288.368 359.128C286.863 358.361 285.639 357.137 284.872 355.632C284 353.921 284 351.68 284 347.2V285.8Z" fill="#0A0A0A" fill-opacity="0.08"/>
<rect x="290" y="253" width="90" height="6" rx="3" fill="#0A0A0A" fill-opacity="0.1"/>
<rect x="290" y="264" width="69" height="4" rx="2" fill="#0A0A0A" fill-opacity="0.08"/>
<rect x="462" y="244" width="169" height="119" rx="10" fill="white" fill-opacity="0.85"/>
<path d="M465 285.8C465 281.32 465 279.079 465.872 277.368C466.639 275.863 467.863 274.639 469.368 273.872C471.079 273 473.32 273 477.8 273H615.2C619.68 273 621.921 273 623.632 273.872C625.137 274.639 626.361 275.863 627.128 277.368C628 279.079 628 281.32 628 285.8V347.2C628 351.68 628 353.921 627.128 355.632C626.361 357.137 625.137 358.361 623.632 359.128C621.921 360 619.68 360 615.2 360H477.8C473.32 360 471.079 360 469.368 359.128C467.863 358.361 466.639 357.137 465.872 355.632C465 353.921 465 351.68 465 347.2V285.8Z" fill="#0A0A0A" fill-opacity="0.08"/>
<rect x="471" y="253" width="90" height="6" rx="3" fill="#0A0A0A" fill-opacity="0.1"/>
<rect x="471" y="264" width="69" height="4" rx="2" fill="#0A0A0A" fill-opacity="0.08"/>
<rect x="643" y="244" width="169" height="119" rx="10" fill="white" fill-opacity="0.85"/>
<path d="M646 285.8C646 281.32 646 279.079 646.872 277.368C647.639 275.863 648.863 274.639 650.368 273.872C652.079 273 654.32 273 658.8 273H796.2C800.68 273 802.921 273 804.632 273.872C806.137 274.639 807.361 275.863 808.128 277.368C809 279.079 809 281.32 809 285.8V347.2C809 351.68 809 353.921 808.128 355.632C807.361 357.137 806.137 358.361 804.632 359.128C802.921 360 800.68 360 796.2 360H658.8C654.32 360 652.079 360 650.368 359.128C648.863 358.361 647.639 357.137 646.872 355.632C646 353.921 646 351.68 646 347.2V285.8Z" fill="#0A0A0A" fill-opacity="0.08"/>
<rect x="652" y="253" width="90" height="6" rx="3" fill="#0A0A0A" fill-opacity="0.1"/>
<rect x="652" y="264" width="69" height="4" rx="2" fill="#0A0A0A" fill-opacity="0.08"/>
<path d="M75 49C75 44.5817 78.5817 41 83 41V41C87.4183 41 91 44.5817 91 49V49C91 53.4183 87.4183 57 83 57V57C78.5817 57 75 53.4183 75 49V49Z" fill="#0A0A0A" fill-opacity="0.05"/>
<rect x="100" y="45" width="63" height="6" rx="3" fill="#0A0A0A" fill-opacity="0.1"/>
<rect x="76" y="194" width="12" height="12" rx="4" fill="#0A0A0A" fill-opacity="0.1"/>
<rect x="76" y="321" width="12" height="12" rx="4" fill="#0A0A0A" fill-opacity="0.1"/>
<rect x="76" y="215" width="12" height="12" rx="4" fill="#0A0A0A" fill-opacity="0.1"/>
<rect x="76" y="342" width="12" height="12" rx="4" fill="#0A0A0A" fill-opacity="0.1"/>
<rect x="76" y="236" width="12" height="12" rx="4" fill="#0A0A0A" fill-opacity="0.1"/>
<rect x="76" y="257" width="12" height="12" rx="4" fill="#0A0A0A" fill-opacity="0.1"/>
<rect x="76" y="172" width="63" height="4" rx="2" fill="#0A0A0A" fill-opacity="0.08"/>
<rect x="76" y="299" width="63" height="4" rx="2" fill="#0A0A0A" fill-opacity="0.08"/>
<rect x="94" y="197" width="105" height="6" rx="1" fill="#0A0A0A" fill-opacity="0.1"/>
<rect x="94" y="324" width="105" height="6" rx="1" fill="#0A0A0A" fill-opacity="0.1"/>
<rect x="94" y="218" width="85" height="6" rx="1" fill="#0A0A0A" fill-opacity="0.1"/>
<rect x="94" y="345" width="85" height="6" rx="1" fill="#0A0A0A" fill-opacity="0.1"/>
<rect x="94" y="239" width="97" height="6" rx="1" fill="#0A0A0A" fill-opacity="0.1"/>
<rect x="94" y="260" width="69" height="6" rx="1" fill="#0A0A0A" fill-opacity="0.1"/>
<path d="M84.25 89.5C85.2165 89.5 86 90.2835 86 91.25V93.75C86 94.7165 85.2165 95.5 84.25 95.5H84V95.75C84 96.7165 83.2165 97.5 82.25 97.5H80.3799L78.2432 98.6875C78.0886 98.7733 77.8996 98.771 77.7471 98.6816C77.5944 98.5918 77.5 98.4272 77.5 98.25V97.4824C76.6519 97.3611 76 96.6316 76 95.75V93.25C76 92.2835 76.7835 91.5 77.75 91.5H78V91.25C78 90.2835 78.7835 89.5 79.75 89.5H84.25ZM77.75 92.5C77.3358 92.5 77 92.8358 77 93.25V95.75C77 96.1642 77.3358 96.5 77.75 96.5H78C78.2761 96.5 78.5 96.7239 78.5 97V97.4004L80.0078 96.5635L80.0645 96.5361C80.1233 96.5126 80.1863 96.5 80.25 96.5H82.25C82.6642 96.5 83 96.1642 83 95.75V95.0098C82.9999 95.0065 82.999 95.0033 82.999 95C82.999 94.9957 82.9999 94.9915 83 94.9873V93.25C83 92.8358 82.6642 92.5 82.25 92.5H77.75ZM79.75 90.5C79.3358 90.5 79 90.8358 79 91.25V91.5H82.25C83.2165 91.5 84 92.2835 84 93.25V94.5H84.25C84.6642 94.5 85 94.1642 85 93.75V91.25C85 90.8358 84.6642 90.5 84.25 90.5H79.75Z" fill="#0A0A0A" fill-opacity="0.55"/>
<path d="M118.249 97.7892C116.622 97.7892 115.834 97.0017 115.75 95.8992L116.895 95.8467C117 96.4662 117.357 96.8547 118.249 96.8547C118.942 96.8547 119.33 96.6447 119.33 96.1512C119.33 95.7417 119.12 95.5632 118.06 95.3742C116.432 95.0697 115.949 94.5972 115.949 93.6837C115.949 92.6652 116.737 91.9512 118.197 91.9512C119.74 91.9512 120.402 92.8122 120.507 93.7887L119.362 93.8517C119.32 93.3267 118.995 92.8857 118.176 92.8857C117.451 92.8857 117.104 93.2007 117.104 93.6417C117.104 94.1352 117.378 94.3347 118.281 94.4817C119.971 94.7652 120.486 95.2272 120.486 96.1407C120.486 97.1907 119.583 97.7892 118.249 97.7892Z" fill="#0A0A0A" fill-opacity="0.55"/>
<path d="M110.293 97.664V90.209H111.406V94.8395L113.915 92.078H115.322L113.138 94.43L115.406 97.664H114.125L112.393 95.123L111.406 96.173V97.664H110.293Z" fill="#0A0A0A" fill-opacity="0.55"/>
<path d="M106.907 97.7892C105.28 97.7892 104.492 97.0017 104.408 95.8992L105.553 95.8467C105.658 96.4662 106.015 96.8547 106.907 96.8547C107.6 96.8547 107.989 96.6447 107.989 96.1512C107.989 95.7417 107.779 95.5632 106.718 95.3742C105.091 95.0697 104.608 94.5972 104.608 93.6837C104.608 92.6652 105.395 91.9512 106.855 91.9512C108.398 91.9512 109.06 92.8122 109.165 93.7887L108.02 93.8517C107.978 93.3267 107.653 92.8857 106.834 92.8857C106.109 92.8857 105.763 93.2007 105.763 93.6417C105.763 94.1352 106.036 94.3347 106.939 94.4817C108.629 94.7652 109.144 95.2272 109.144 96.1407C109.144 97.1907 108.241 97.7892 106.907 97.7892Z" fill="#0A0A0A" fill-opacity="0.55"/>
<path d="M100.454 97.7892C99.2885 97.7892 98.543 97.2327 98.543 96.2667C98.543 95.3112 99.0995 94.7967 100.328 94.5552L102.249 94.1877C102.249 93.3267 101.84 92.8962 101.042 92.8962C100.328 92.8962 99.929 93.2217 99.782 93.8307L98.6375 93.7572C98.8475 92.6442 99.719 91.9512 101.042 91.9512C102.554 91.9512 103.362 92.8017 103.362 94.2507V96.4242C103.362 96.6972 103.446 96.7812 103.656 96.7812H103.856V97.6632C103.782 97.6842 103.614 97.6947 103.446 97.6947C102.816 97.6947 102.438 97.4637 102.344 96.8337V96.8022C102.06 97.3902 101.325 97.7892 100.454 97.7892ZM100.632 96.9072C101.64 96.9072 102.249 96.2772 102.249 95.3847V95.0277L100.611 95.3427C99.9395 95.4687 99.698 95.7312 99.698 96.1617C99.698 96.6447 100.034 96.9072 100.632 96.9072Z" fill="#0A0A0A" fill-opacity="0.55"/>
<path d="M95.289 97.664V91.2485H93V90.209H98.712V91.2485H96.423V97.664H95.289Z" fill="#0A0A0A" fill-opacity="0.55"/>
<path d="M83.5611 114C84.1441 114 84.5039 114.636 84.2042 115.136L83.3858 116.5H85.3458C86.0137 116.5 86.339 117.299 85.8907 117.766L85.8448 117.81L79.0235 123.885C78.4521 124.394 77.5757 123.821 77.8116 123.094L78.815 120H77.2823C76.7247 120 76.362 119.413 76.6114 118.915L78.8614 114.415L78.9151 114.324C79.0538 114.123 79.2838 114 79.5323 114H83.5611ZM77.6866 119H79.1588C79.6363 119 79.9836 119.437 79.8956 119.891L79.8721 119.981L79.0469 122.524L84.6895 117.5H82.9439C82.3612 117.5 82.0011 116.864 82.3008 116.364L83.1197 115H79.6866L77.6866 119Z" fill="#0A0A0A" fill-opacity="0.55"/>
<path d="M132.915 122.817C131.288 122.817 130.5 122.029 130.416 120.927L131.561 120.874C131.666 121.494 132.023 121.882 132.915 121.882C133.608 121.882 133.997 121.672 133.997 121.179C133.997 120.769 133.787 120.591 132.726 120.402C131.099 120.097 130.616 119.625 130.616 118.711C130.616 117.693 131.403 116.979 132.863 116.979C134.406 116.979 135.068 117.84 135.173 118.816L134.028 118.879C133.986 118.354 133.661 117.913 132.842 117.913C132.117 117.913 131.771 118.228 131.771 118.669C131.771 119.163 132.044 119.362 132.947 119.509C134.637 119.793 135.152 120.255 135.152 121.168C135.152 122.218 134.249 122.817 132.915 122.817Z" fill="#0A0A0A" fill-opacity="0.55"/>
<path d="M127.115 122.817C125.487 122.817 124.469 121.662 124.469 119.898C124.469 118.134 125.487 116.979 127.083 116.979C128.606 116.979 129.635 118.06 129.635 119.94V120.223H125.624C125.676 121.315 126.233 121.861 127.125 121.861C127.776 121.861 128.217 121.536 128.396 121.011L129.551 121.084C129.257 122.124 128.343 122.817 127.115 122.817ZM125.624 119.383H128.459C128.385 118.396 127.839 117.924 127.083 117.924C126.285 117.924 125.75 118.438 125.624 119.383Z" fill="#0A0A0A" fill-opacity="0.55"/>
<path d="M118.734 122.691V117.105H119.753L119.774 118.081C120.068 117.315 120.708 116.979 121.475 116.979C122.724 116.979 123.365 117.882 123.365 119.1V122.691H122.252V119.436C122.252 118.449 121.947 117.913 121.17 117.913C120.383 117.913 119.847 118.449 119.847 119.436V122.691H118.734Z" fill="#0A0A0A" fill-opacity="0.55"/>
<path d="M115.967 116.297V115.184H117.122V116.297H115.967ZM115.988 122.691V117.105H117.101V122.691H115.988Z" fill="#0A0A0A" fill-opacity="0.55"/>
<path d="M113.967 122.691C112.907 122.691 112.413 122.229 112.413 121.179V118.019H111.562V117.105H112.413V115.793H113.526V117.105H115.007V118.019H113.526V121.095C113.526 121.62 113.746 121.778 114.208 121.778H115.007V122.691H113.967Z" fill="#0A0A0A" fill-opacity="0.55"/>
<path d="M107.787 122.817C106.653 122.817 105.949 122.03 105.949 120.696V117.105H107.062V120.413C107.062 121.431 107.409 121.883 108.123 121.883C108.931 121.883 109.414 121.337 109.414 120.381V117.105H110.527V122.691H109.488L109.477 121.778C109.183 122.46 108.595 122.817 107.787 122.817Z" fill="#0A0A0A" fill-opacity="0.55"/>
<path d="M102.177 122.817C100.581 122.817 99.5312 121.672 99.5312 119.898C99.5312 118.123 100.581 116.979 102.177 116.979C103.773 116.979 104.823 118.123 104.823 119.898C104.823 121.672 103.773 122.817 102.177 122.817ZM102.177 121.851C103.122 121.851 103.668 121.126 103.668 119.898C103.668 118.669 103.122 117.945 102.177 117.945C101.232 117.945 100.686 118.669 100.686 119.898C100.686 121.126 101.232 121.851 102.177 121.851Z" fill="#0A0A0A" fill-opacity="0.55"/>
<path d="M93 122.691V115.236H95.9715C97.557 115.236 98.5545 116.108 98.5545 117.483C98.5545 118.355 97.977 119.016 97.284 119.226C97.9665 119.331 98.3655 119.751 98.4285 120.518L98.628 122.691H97.4835L97.305 120.665C97.263 120.056 96.927 119.783 96.108 119.783H94.134V122.691H93ZM94.134 118.743H95.9925C96.843 118.743 97.3785 118.302 97.3785 117.515C97.3785 116.717 96.8535 116.276 95.898 116.276H94.134V118.743Z" fill="#0A0A0A" fill-opacity="0.55"/>
<path d="M80.585 139.776C80.859 139.718 81.1421 139.718 81.4161 139.776C81.7442 139.846 82.0426 140.024 82.4503 140.259L84.3809 141.374C84.7887 141.609 85.092 141.779 85.3165 142.028C85.5038 142.236 85.6459 142.481 85.7325 142.748C85.8102 142.987 85.827 143.243 85.8301 143.554V146.446C85.827 146.757 85.8102 147.012 85.7325 147.252C85.6567 147.485 85.5386 147.702 85.3848 147.892L85.3165 147.972C85.092 148.221 84.7886 148.39 84.3809 148.626L82.4503 149.74C82.0424 149.975 81.7442 150.155 81.4161 150.224C81.1422 150.282 80.8589 150.282 80.585 150.224C80.2568 150.155 79.9578 149.975 79.5499 149.74L77.6202 148.626C77.2124 148.39 76.9081 148.222 76.6837 147.972C76.4962 147.764 76.3542 147.518 76.2676 147.252C76.1641 146.933 76.17 146.585 76.17 146.114V143.885C76.17 143.415 76.164 143.067 76.2676 142.748C76.3542 142.481 76.4964 142.236 76.6837 142.028C76.9082 141.779 77.2123 141.609 77.6202 141.374L79.5499 140.259L79.838 140.094C80.1092 139.942 80.3389 139.828 80.585 139.776ZM81.5001 145.289V149.125C81.6058 149.069 81.7476 148.991 81.9503 148.874L83.8809 147.759C84.3469 147.49 84.4799 147.406 84.5733 147.302C84.6669 147.198 84.738 147.076 84.7813 146.943L84.796 146.891C84.8259 146.765 84.8301 146.585 84.8301 146.114V143.885C84.8301 143.651 84.8271 143.489 84.8223 143.37L81.5001 145.289ZM77.17 143.885V146.114C77.17 146.652 77.1757 146.81 77.2188 146.943L77.2569 147.041C77.2995 147.136 77.3566 147.225 77.4268 147.303C77.5202 147.407 77.6544 147.491 78.1202 147.759L80.0508 148.874L80.3438 149.042C80.4028 149.075 80.4555 149.099 80.5001 149.123V145.289L77.1778 143.371C77.173 143.49 77.17 143.652 77.17 143.885ZM81.2081 140.754C81.0711 140.725 80.929 140.724 80.7921 140.754C80.6557 140.783 80.5165 140.857 80.0508 141.126L78.1202 142.24C77.9173 142.357 77.7778 142.44 77.6768 142.504L81.0001 144.423L84.3233 142.504C84.2224 142.44 84.0833 142.357 83.8809 142.24L81.9503 141.126C81.4841 140.857 81.3446 140.783 81.2081 140.754Z" fill="#0A0A0A" fill-opacity="0.55"/>
<path d="M141.88 148.854C140.253 148.854 139.234 147.699 139.234 145.935C139.234 144.171 140.253 143.016 141.849 143.016C143.371 143.016 144.4 144.097 144.4 145.977V146.26H140.389C140.442 147.352 140.998 147.898 141.891 147.898C142.542 147.898 142.983 147.573 143.161 147.048L144.316 147.121C144.022 148.161 143.109 148.854 141.88 148.854ZM140.389 145.42H143.224C143.151 144.433 142.605 143.961 141.849 143.961C141.051 143.961 140.515 144.475 140.389 145.42Z" fill="#0A0A0A" fill-opacity="0.55"/>
<path d="M133.852 148.729V147.731L137.222 144.056H133.957V143.143H138.503V144.14L135.101 147.815H138.587V148.729H133.852Z" fill="#0A0A0A" fill-opacity="0.55"/>
<path d="M131.5 142.334V141.221H132.655V142.334H131.5ZM131.521 148.728V143.142H132.634V148.728H131.521Z" fill="#0A0A0A" fill-opacity="0.55"/>
<path d="M122.291 148.728V143.142H123.31L123.331 144.097C123.604 143.415 124.181 143.016 124.885 143.016C125.714 143.016 126.292 143.446 126.533 144.171C126.785 143.425 127.352 143.016 128.15 143.016C129.326 143.016 129.998 143.772 129.998 145.137V148.728H128.885V145.41C128.885 144.444 128.539 143.95 127.825 143.95C127.121 143.95 126.67 144.507 126.67 145.452V148.728H125.609V145.452C125.609 144.507 125.315 143.95 124.57 143.95C123.856 143.95 123.404 144.517 123.404 145.452V148.728H122.291Z" fill="#0A0A0A" fill-opacity="0.55"/>
<path d="M118.521 148.854C116.925 148.854 115.875 147.709 115.875 145.935C115.875 144.16 116.925 143.016 118.521 143.016C120.117 143.016 121.167 144.16 121.167 145.935C121.167 147.709 120.117 148.854 118.521 148.854ZM118.521 147.888C119.466 147.888 120.012 147.163 120.012 145.935C120.012 144.706 119.466 143.982 118.521 143.982C117.576 143.982 117.03 144.706 117.03 145.935C117.03 147.163 117.576 147.888 118.521 147.888Z" fill="#0A0A0A" fill-opacity="0.55"/>
<path d="M114.211 148.729C113.151 148.729 112.657 148.267 112.657 147.217V144.056H111.807V143.143H112.657V141.83H113.77V143.143H115.251V144.056H113.77V147.133C113.77 147.658 113.991 147.815 114.453 147.815H115.251V148.729H114.211Z" fill="#0A0A0A" fill-opacity="0.55"/>
<path d="M108.89 148.854C107.262 148.854 106.475 148.066 106.391 146.964L107.535 146.911C107.64 147.531 107.997 147.919 108.89 147.919C109.583 147.919 109.971 147.709 109.971 147.216C109.971 146.806 109.761 146.628 108.701 146.439C107.073 146.134 106.59 145.662 106.59 144.748C106.59 143.73 107.378 143.016 108.837 143.016C110.381 143.016 111.042 143.877 111.147 144.853L110.003 144.916C109.961 144.391 109.635 143.95 108.816 143.95C108.092 143.95 107.745 144.265 107.745 144.706C107.745 145.2 108.018 145.399 108.921 145.546C110.612 145.83 111.126 146.292 111.126 147.205C111.126 148.255 110.223 148.854 108.89 148.854Z" fill="#0A0A0A" fill-opacity="0.55"/>
<path d="M102.525 148.855C101.391 148.855 100.688 148.067 100.688 146.734V143.143H101.8V146.45C101.8 147.469 102.147 147.92 102.861 147.92C103.67 147.92 104.153 147.374 104.153 146.419V143.143H105.266V148.729H104.226L104.215 147.815C103.921 148.498 103.333 148.855 102.525 148.855Z" fill="#0A0A0A" fill-opacity="0.55"/>
<path d="M96.402 148.896C94.386 148.896 93 147.437 93 145.011C93 142.607 94.365 141.105 96.4125 141.105C98.2605 141.105 99.2475 142.092 99.5625 143.72L98.376 143.783C98.1765 142.764 97.5465 142.145 96.4125 142.145C95.058 142.145 94.176 143.237 94.176 145.011C94.176 146.796 95.0685 147.857 96.402 147.857C97.6095 147.857 98.25 147.174 98.4285 146.061L99.615 146.124C99.3315 147.815 98.2395 148.896 96.402 148.896Z" fill="#0A0A0A" fill-opacity="0.55"/>
<path opacity="0.5" d="M94.3285 76.0964C93.0885 76.0964 92.3125 75.2164 92.3125 73.8724C92.3125 72.5284 93.0885 71.6484 94.3045 71.6484C95.4645 71.6484 96.2485 72.4724 96.2485 73.9044V74.1204H93.1925C93.2325 74.9524 93.6565 75.3684 94.3365 75.3684C94.8325 75.3684 95.1685 75.1204 95.3045 74.7204L96.1845 74.7764C95.9605 75.5684 95.2645 76.0964 94.3285 76.0964ZM93.1925 73.4804H95.3525C95.2965 72.7284 94.8805 72.3684 94.3045 72.3684C93.6965 72.3684 93.2885 72.7604 93.1925 73.4804Z" fill="#0A0A0A" fill-opacity="0.55"/>
<path opacity="0.5" d="M89.1393 76.0963C88.0433 76.0963 87.3633 75.2403 87.3633 73.8723C87.3633 72.5123 88.0513 71.6483 89.1393 71.6483C89.7233 71.6483 90.2113 71.9043 90.4433 72.3443V70.3203H91.2913V76.0003H90.4993L90.4753 75.3603C90.2353 75.8243 89.7313 76.0963 89.1393 76.0963ZM89.3633 75.3603C90.0593 75.3603 90.4433 74.8083 90.4433 73.8723C90.4433 72.9283 90.0593 72.3843 89.3633 72.3843C88.6833 72.3843 88.2433 72.9443 88.2433 73.8723C88.2433 74.7843 88.6833 75.3603 89.3633 75.3603Z" fill="#0A0A0A" fill-opacity="0.55"/>
<path opacity="0.5" d="M85.4824 71.1293V70.2812H86.3624V71.1293H85.4824ZM85.4984 76.0013V71.7453H86.3464V76.0013H85.4984Z" fill="#0A0A0A" fill-opacity="0.55"/>
<path opacity="0.5" d="M82.7595 76.0964C81.5195 76.0964 80.9195 75.4964 80.8555 74.6564L81.7275 74.6164C81.8075 75.0884 82.0795 75.3844 82.7595 75.3844C83.2875 75.3844 83.5835 75.2244 83.5835 74.8484C83.5835 74.5364 83.4235 74.4004 82.6155 74.2564C81.3755 74.0244 81.0075 73.6644 81.0075 72.9684C81.0075 72.1924 81.6075 71.6484 82.7195 71.6484C83.8955 71.6484 84.3995 72.3044 84.4795 73.0484L83.6075 73.0964C83.5755 72.6964 83.3275 72.3604 82.7035 72.3604C82.1515 72.3604 81.8875 72.6004 81.8875 72.9364C81.8875 73.3124 82.0955 73.4644 82.7835 73.5764C84.0715 73.7924 84.4635 74.1444 84.4635 74.8404C84.4635 75.6404 83.7755 76.0964 82.7595 76.0964Z" fill="#0A0A0A" fill-opacity="0.55"/>
<path opacity="0.5" d="M75.1602 76.0003L77.2082 70.3203H78.3042L80.3522 76.0003H79.4322L78.9122 74.5203H76.5922L76.0802 76.0003H75.1602ZM76.8642 73.7363H78.6482L77.7522 71.1443L76.8642 73.7363Z" fill="#0A0A0A" fill-opacity="0.55"/>
</g>
<path d="M63 18C63 7.50659 71.5066 -1 82 -1H819C829.493 -1 838 7.50659 838 18H836C836 8.61116 828.389 1 819 1H82C72.6112 1 65 8.61116 65 18H63ZM65 18M837 372H64H837M63 372V18C63 7.50659 71.5066 -1 82 -1V1C72.6112 1 65 8.61116 65 18V372H63ZM819 -1C829.493 -1 838 7.50659 838 18V372H836V18C836 8.61116 828.389 1 819 1V-1Z" fill="#0A0A0A" fill-opacity="0.1" mask="url(#path-1-inside-1_3723_15961)"/>
</g>
<defs>
<clipPath id="clip0_3723_15961">
<rect width="900" height="356" fill="white"/>
</clipPath>
<clipPath id="clip1_3723_15961">
<path d="M64 18C64 8.05888 72.0589 0 82 0H819C828.941 0 837 8.05887 837 18V372H64V18Z" fill="white"/>
</clipPath>
</defs>
</svg>
