<svg width="900" height="356" viewBox="0 0 900 356" fill="none" xmlns="http://www.w3.org/2000/svg">
<g clip-path="url(#clip0_3723_15850)">
<g clip-path="url(#clip1_3723_15850)">
<path d="M64 28C64 18.0589 72.0589 10 82 10H819C828.941 10 837 18.0589 837 28V386C837 395.941 828.941 404 819 404H82C72.0589 404 64 395.941 64 386V28Z" fill="#FAFAFA" fill-opacity="0.01"/>
<rect x="80" y="24" width="10.2667" height="10.2667" rx="5.13333" fill="#FAFAFA" fill-opacity="0.15"/>
<rect x="96.8672" y="24" width="10.2667" height="10.2667" rx="5.13333" fill="#FAFAFA" fill-opacity="0.15"/>
<rect x="113.732" y="24" width="10.2667" height="10.2667" rx="5.13333" fill="#FAFAFA" fill-opacity="0.15"/>
<path d="M237 24C237 16.268 243.268 10 251 10H823C830.732 10 837 16.268 837 24V381C837 388.732 830.732 395 823 395H251C243.268 395 237 388.732 237 381V24Z" fill="#FAFAFA" fill-opacity="0.05"/>
<path fill-rule="evenodd" clip-rule="evenodd" d="M537 84.1973C553.517 84.1973 566.906 97.9884 566.906 115.001C566.906 132.013 553.517 145.804 537 145.804C520.483 145.804 507.094 132.013 507.094 115.001C507.094 97.9884 520.483 84.1973 537 84.1973ZM559.86 103.203C559.587 102.675 558.8 102.869 558.738 103.46C558.124 109.293 555.46 116.219 550.949 122.857C550.863 122.983 550.885 123.153 550.999 123.253C552.252 124.337 553.662 125.521 555.233 126.838C555.413 126.99 555.446 127.255 555.307 127.446L554.428 128.656C554.29 128.846 554.027 128.897 553.828 128.772C552.087 127.684 550.524 126.708 549.104 125.851C548.974 125.773 548.806 125.805 548.713 125.925C543.789 132.233 538.032 136.872 532.687 139.228C532.142 139.469 532.199 140.279 532.787 140.376C534.158 140.602 535.565 140.72 537 140.72C551.138 140.72 562.611 129.313 562.718 115.2C562.719 115.134 562.719 115.067 562.719 115.001C562.719 114.888 562.719 114.776 562.717 114.664C562.664 110.536 561.639 106.643 559.86 103.203ZM526.634 110.926C526.5 110.794 526.277 110.816 526.175 110.974C525.587 111.891 525.038 112.807 524.528 113.718C522.057 118.179 520.55 122.542 520.003 126.289C519.482 129.867 519.931 132.418 520.745 134.072C521.209 135.014 522.031 135.772 523.056 135.998C524.715 136.364 527.298 136.064 530.91 134.191C534.984 132.078 539.514 128.331 543.622 123.256C543.743 123.106 543.688 122.879 543.512 122.8C537.799 120.232 534.787 121.465 529.238 127.663C529.084 127.835 528.822 127.867 528.635 127.731L527.406 126.838C527.219 126.702 527.168 126.443 527.284 126.243C531.644 118.74 531.541 115.771 526.634 110.926ZM537 89.2813C522.908 89.2813 511.463 100.615 511.283 114.664C511.281 114.776 511.281 114.888 511.281 115.001C511.281 115.067 511.281 115.134 511.282 115.2C511.315 119.586 512.446 123.712 514.414 127.314C514.696 127.83 515.469 127.631 515.532 127.047C516.032 122.432 517.859 117.055 520.892 111.643C521.557 110.444 522.284 109.245 523.07 108.053C523.153 107.927 523.13 107.758 523.015 107.66C521.633 106.48 520.056 105.172 518.279 103.684C518.099 103.533 518.066 103.267 518.204 103.077L519.787 100.899C519.925 100.708 520.188 100.658 520.387 100.783C522.349 102.011 524.078 103.105 525.625 104.054C525.755 104.133 525.923 104.102 526.017 103.984C526.157 103.807 526.297 103.631 526.439 103.457C531.201 97.5487 536.62 93.1505 541.628 90.8168C542.158 90.5696 542.097 89.7794 541.52 89.6772C540.053 89.417 538.542 89.2813 537 89.2813ZM550.786 93.6833C548.958 93.2114 546.211 93.4717 542.523 95.294C538.456 97.3032 533.801 101.116 529.747 106.031C529.627 106.176 529.675 106.396 529.842 106.483C535.976 109.661 538.831 108.846 544.625 102.376C544.779 102.204 545.041 102.172 545.228 102.308L546.457 103.201C546.644 103.336 546.695 103.595 546.579 103.795C542.395 110.995 542.157 114.239 546.377 118.886C546.507 119.029 546.738 119.012 546.844 118.851C550.52 113.275 552.75 107.69 553.514 103.078C553.972 99.6738 553.803 97.3882 553.197 95.8579C552.778 94.7999 551.887 93.9678 550.786 93.6833Z" fill="#FAFAFA" fill-opacity="0.15"/>
<rect x="326" y="187.551" width="421" height="31.1391" rx="9.01499" fill="#FAFAFA" fill-opacity="0.08"/>
<path d="M336.164 206.621L338.715 199.546H340.08L342.631 206.621H341.485L340.837 204.778H337.948L337.31 206.621H336.164ZM338.287 203.801H340.509L339.393 200.573L338.287 203.801ZM345.43 206.741C344.932 206.741 344.51 206.664 344.165 206.511C343.826 206.359 343.564 206.149 343.378 205.884C343.192 205.611 343.085 205.299 343.059 204.947L344.145 204.897C344.198 205.19 344.324 205.422 344.524 205.595C344.723 205.767 345.025 205.854 345.43 205.854C345.762 205.854 346.025 205.801 346.218 205.694C346.41 205.588 346.507 205.419 346.507 205.186C346.507 205.06 346.473 204.954 346.407 204.867C346.347 204.774 346.227 204.698 346.048 204.638C345.869 204.572 345.603 204.509 345.251 204.449C344.726 204.349 344.314 204.233 344.015 204.1C343.716 203.967 343.504 203.798 343.378 203.592C343.251 203.386 343.188 203.137 343.188 202.845C343.188 202.36 343.368 201.964 343.726 201.659C344.092 201.353 344.617 201.2 345.301 201.2C345.759 201.2 346.144 201.28 346.457 201.44C346.769 201.592 347.011 201.802 347.184 202.067C347.363 202.326 347.476 202.619 347.523 202.944L346.437 203.004C346.404 202.818 346.337 202.659 346.237 202.526C346.144 202.386 346.018 202.28 345.859 202.207C345.699 202.127 345.51 202.087 345.291 202.087C344.952 202.087 344.7 202.154 344.534 202.287C344.367 202.419 344.284 202.592 344.284 202.805C344.284 202.964 344.321 203.094 344.394 203.193C344.474 203.293 344.6 203.376 344.773 203.442C344.945 203.502 345.175 203.555 345.46 203.602C346.012 203.695 346.443 203.811 346.756 203.951C347.068 204.083 347.287 204.25 347.413 204.449C347.539 204.648 347.603 204.891 347.603 205.176C347.603 205.508 347.51 205.791 347.324 206.023C347.138 206.256 346.882 206.435 346.556 206.561C346.231 206.681 345.855 206.741 345.43 206.741ZM348.672 206.621V199.546H349.728V203.941L352.109 201.32H353.445L351.372 203.552L353.524 206.621H352.309L350.664 204.21L349.728 205.206V206.621H348.672ZM359.199 206.621C358.695 206.621 358.323 206.505 358.083 206.272C357.844 206.04 357.725 205.678 357.725 205.186V200.074H358.781V205.106C358.781 205.352 358.834 205.522 358.94 205.615C359.047 205.708 359.209 205.754 359.429 205.754H360.186V206.621H359.199ZM356.918 202.187V201.32H360.186V202.187H356.918ZM363.29 206.741C362.785 206.741 362.343 206.628 361.965 206.402C361.586 206.176 361.294 205.854 361.088 205.435C360.882 205.017 360.779 204.529 360.779 203.971C360.779 203.406 360.882 202.918 361.088 202.506C361.294 202.094 361.586 201.775 361.965 201.549C362.343 201.317 362.785 201.2 363.29 201.2C363.795 201.2 364.237 201.317 364.615 201.549C364.994 201.775 365.286 202.094 365.492 202.506C365.698 202.918 365.801 203.406 365.801 203.971C365.801 204.529 365.698 205.017 365.492 205.435C365.286 205.854 364.994 206.176 364.615 206.402C364.237 206.628 363.795 206.741 363.29 206.741ZM363.29 205.824C363.742 205.824 364.09 205.661 364.336 205.336C364.582 205.004 364.705 204.548 364.705 203.971C364.705 203.393 364.582 202.941 364.336 202.615C364.09 202.283 363.742 202.117 363.29 202.117C362.845 202.117 362.496 202.283 362.244 202.615C361.998 202.941 361.875 203.393 361.875 203.971C361.875 204.548 361.998 205.004 362.244 205.336C362.496 205.661 362.845 205.824 363.29 205.824ZM371.272 206.741C370.82 206.741 370.425 206.628 370.086 206.402C369.754 206.176 369.498 205.857 369.319 205.445C369.146 205.027 369.06 204.535 369.06 203.971C369.06 203.406 369.15 202.918 369.329 202.506C369.508 202.087 369.764 201.765 370.096 201.539C370.428 201.313 370.82 201.2 371.272 201.2C371.637 201.2 371.963 201.277 372.249 201.43C372.534 201.582 372.75 201.795 372.896 202.067V199.546H373.952V206.621H372.966L372.936 205.824C372.79 206.11 372.567 206.335 372.268 206.502C371.976 206.661 371.644 206.741 371.272 206.741ZM371.551 205.824C371.837 205.824 372.079 205.751 372.278 205.605C372.478 205.459 372.631 205.246 372.737 204.967C372.843 204.688 372.896 204.356 372.896 203.971C372.896 203.572 372.843 203.236 372.737 202.964C372.631 202.685 372.478 202.476 372.278 202.336C372.079 202.19 371.837 202.117 371.551 202.117C371.126 202.117 370.787 202.283 370.535 202.615C370.282 202.941 370.156 203.393 370.156 203.971C370.156 204.542 370.282 204.994 370.535 205.326C370.787 205.658 371.126 205.824 371.551 205.824ZM377.536 206.741C377.031 206.741 376.589 206.628 376.211 206.402C375.832 206.176 375.54 205.854 375.334 205.435C375.128 205.017 375.025 204.529 375.025 203.971C375.025 203.406 375.128 202.918 375.334 202.506C375.54 202.094 375.832 201.775 376.211 201.549C376.589 201.317 377.031 201.2 377.536 201.2C378.041 201.2 378.483 201.317 378.861 201.549C379.24 201.775 379.532 202.094 379.738 202.506C379.944 202.918 380.047 203.406 380.047 203.971C380.047 204.529 379.944 205.017 379.738 205.435C379.532 205.854 379.24 206.176 378.861 206.402C378.483 206.628 378.041 206.741 377.536 206.741ZM377.536 205.824C377.988 205.824 378.337 205.661 378.582 205.336C378.828 205.004 378.951 204.548 378.951 203.971C378.951 203.393 378.828 202.941 378.582 202.615C378.337 202.283 377.988 202.117 377.536 202.117C377.091 202.117 376.742 202.283 376.49 202.615C376.244 202.941 376.121 203.393 376.121 203.971C376.121 204.548 376.244 205.004 376.49 205.336C376.742 205.661 377.091 205.824 377.536 205.824ZM385.12 206.741C384.568 206.741 384.126 206.614 383.794 206.362C383.469 206.11 383.306 205.754 383.306 205.296C383.306 204.837 383.442 204.482 383.715 204.23C383.994 203.971 384.422 203.785 385 203.672L386.823 203.323C386.823 202.911 386.727 202.605 386.535 202.406C386.342 202.2 386.056 202.097 385.678 202.097C385.339 202.097 385.073 202.174 384.88 202.326C384.688 202.473 384.555 202.692 384.482 202.984L383.396 202.914C383.495 202.383 383.741 201.964 384.133 201.659C384.532 201.353 385.046 201.2 385.678 201.2C386.395 201.2 386.94 201.393 387.312 201.778C387.69 202.157 387.88 202.692 387.88 203.383V205.445C387.88 205.572 387.9 205.661 387.94 205.714C387.986 205.761 388.059 205.784 388.159 205.784H388.348V206.621C388.315 206.628 388.262 206.634 388.189 206.641C388.116 206.648 388.039 206.651 387.959 206.651C387.734 206.651 387.538 206.614 387.372 206.541C387.212 206.468 387.093 206.349 387.013 206.183C386.933 206.01 386.893 205.781 386.893 205.495L387.003 205.545C386.95 205.777 386.833 205.983 386.654 206.163C386.481 206.342 386.259 206.485 385.986 206.591C385.721 206.691 385.432 206.741 385.12 206.741ZM385.289 205.904C385.608 205.904 385.88 205.844 386.106 205.724C386.332 205.598 386.508 205.425 386.634 205.206C386.76 204.987 386.823 204.738 386.823 204.459V204.12L385.269 204.419C384.95 204.479 384.724 204.575 384.591 204.708C384.465 204.834 384.402 204.997 384.402 205.196C384.402 205.422 384.478 205.598 384.631 205.724C384.791 205.844 385.01 205.904 385.289 205.904ZM393.725 206.621C393.22 206.621 392.848 206.505 392.609 206.272C392.37 206.04 392.25 205.678 392.25 205.186V200.074H393.306V205.106C393.306 205.352 393.359 205.522 393.466 205.615C393.572 205.708 393.735 205.754 393.954 205.754H394.711V206.621H393.725ZM391.443 202.187V201.32H394.711V202.187H391.443ZM397.176 206.741C396.625 206.741 396.183 206.614 395.851 206.362C395.525 206.11 395.363 205.754 395.363 205.296C395.363 204.837 395.499 204.482 395.771 204.23C396.05 203.971 396.479 203.785 397.057 203.672L398.88 203.323C398.88 202.911 398.784 202.605 398.591 202.406C398.399 202.2 398.113 202.097 397.734 202.097C397.395 202.097 397.13 202.174 396.937 202.326C396.744 202.473 396.612 202.692 396.538 202.984L395.452 202.914C395.552 202.383 395.798 201.964 396.19 201.659C396.588 201.353 397.103 201.2 397.734 201.2C398.452 201.2 398.996 201.393 399.368 201.778C399.747 202.157 399.936 202.692 399.936 203.383V205.445C399.936 205.572 399.956 205.661 399.996 205.714C400.043 205.761 400.116 205.784 400.215 205.784H400.405V206.621C400.371 206.628 400.318 206.634 400.245 206.641C400.172 206.648 400.096 206.651 400.016 206.651C399.79 206.651 399.594 206.614 399.428 206.541C399.269 206.468 399.149 206.349 399.069 206.183C398.99 206.01 398.95 205.781 398.95 205.495L399.059 205.545C399.006 205.777 398.89 205.983 398.711 206.163C398.538 206.342 398.315 206.485 398.043 206.591C397.777 206.691 397.488 206.741 397.176 206.741ZM397.346 205.904C397.664 205.904 397.937 205.844 398.163 205.724C398.389 205.598 398.565 205.425 398.691 205.206C398.817 204.987 398.88 204.738 398.88 204.459V204.12L397.326 204.419C397.007 204.479 396.781 204.575 396.648 204.708C396.522 204.834 396.459 204.997 396.459 205.196C396.459 205.422 396.535 205.598 396.688 205.724C396.847 205.844 397.067 205.904 397.346 205.904ZM403.3 206.741C402.802 206.741 402.38 206.664 402.035 206.511C401.696 206.359 401.434 206.149 401.248 205.884C401.062 205.611 400.955 205.299 400.929 204.947L402.015 204.897C402.068 205.19 402.194 205.422 402.394 205.595C402.593 205.767 402.895 205.854 403.3 205.854C403.632 205.854 403.895 205.801 404.088 205.694C404.28 205.588 404.376 205.419 404.376 205.186C404.376 205.06 404.343 204.954 404.277 204.867C404.217 204.774 404.097 204.698 403.918 204.638C403.739 204.572 403.473 204.509 403.121 204.449C402.596 204.349 402.184 204.233 401.885 204.1C401.586 203.967 401.374 203.798 401.248 203.592C401.121 203.386 401.058 203.137 401.058 202.845C401.058 202.36 401.238 201.964 401.596 201.659C401.962 201.353 402.487 201.2 403.171 201.2C403.629 201.2 404.014 201.28 404.327 201.44C404.639 201.592 404.881 201.802 405.054 202.067C405.233 202.326 405.346 202.619 405.393 202.944L404.307 203.004C404.274 202.818 404.207 202.659 404.107 202.526C404.014 202.386 403.888 202.28 403.729 202.207C403.569 202.127 403.38 202.087 403.161 202.087C402.822 202.087 402.57 202.154 402.404 202.287C402.237 202.419 402.154 202.592 402.154 202.805C402.154 202.964 402.191 203.094 402.264 203.193C402.344 203.293 402.47 203.376 402.643 203.442C402.815 203.502 403.045 203.555 403.33 203.602C403.882 203.695 404.313 203.811 404.626 203.951C404.938 204.083 405.157 204.25 405.283 204.449C405.409 204.648 405.473 204.891 405.473 205.176C405.473 205.508 405.38 205.791 405.194 206.023C405.008 206.256 404.752 206.435 404.426 206.561C404.101 206.681 403.725 206.741 403.3 206.741ZM406.542 206.621V199.546H407.598V203.941L409.979 201.32H411.314L409.242 203.552L411.394 206.621H410.179L408.534 204.21L407.598 205.206V206.621H406.542ZM412.14 208.186L412.638 206.621H412.09V205.366H413.376V206.472L412.748 208.186H412.14ZM422.673 207.319C422.321 207.465 421.956 207.574 421.577 207.647C421.205 207.721 420.81 207.757 420.391 207.757C419.607 207.757 418.936 207.614 418.378 207.329C417.82 207.043 417.392 206.631 417.093 206.093C416.801 205.548 416.654 204.897 416.654 204.14C416.654 203.462 416.761 202.845 416.973 202.287C417.193 201.722 417.501 201.237 417.9 200.832C418.305 200.42 418.784 200.104 419.335 199.885C419.886 199.659 420.497 199.546 421.168 199.546C421.939 199.546 422.61 199.692 423.181 199.985C423.759 200.277 424.204 200.689 424.516 201.22C424.835 201.752 424.995 202.376 424.995 203.094C424.995 203.638 424.912 204.117 424.746 204.529C424.58 204.934 424.35 205.249 424.058 205.475C423.766 205.701 423.427 205.814 423.042 205.814C422.71 205.814 422.441 205.721 422.235 205.535C422.029 205.349 421.916 205.097 421.896 204.778L422.075 204.738C422.002 204.944 421.879 205.133 421.706 205.306C421.534 205.478 421.334 205.615 421.109 205.714C420.883 205.814 420.65 205.864 420.411 205.864C420.026 205.864 419.697 205.787 419.425 205.635C419.159 205.482 418.956 205.269 418.817 204.997C418.677 204.718 418.607 204.396 418.607 204.03C418.607 203.579 418.694 203.17 418.867 202.805C419.039 202.439 419.282 202.15 419.594 201.938C419.913 201.725 420.282 201.619 420.7 201.619C421.059 201.619 421.364 201.699 421.617 201.858C421.869 202.017 422.029 202.227 422.095 202.486L421.956 202.556L422.025 201.649H422.892L422.723 203.701C422.716 203.848 422.703 204.01 422.683 204.19C422.67 204.369 422.663 204.519 422.663 204.638C422.663 204.778 422.703 204.887 422.783 204.967C422.862 205.047 422.982 205.087 423.141 205.087C423.467 205.087 423.723 204.917 423.909 204.578C424.101 204.233 424.198 203.758 424.198 203.153C424.198 202.536 424.081 202.014 423.849 201.589C423.616 201.164 423.271 200.845 422.813 200.632C422.361 200.413 421.803 200.304 421.138 200.304C420.587 200.304 420.086 200.397 419.634 200.583C419.182 200.762 418.794 201.021 418.468 201.36C418.142 201.692 417.89 202.091 417.711 202.556C417.538 203.021 417.452 203.539 417.452 204.11C417.452 204.721 417.565 205.243 417.79 205.674C418.023 206.106 418.362 206.435 418.807 206.661C419.252 206.887 419.79 207 420.421 207C420.793 207 421.152 206.963 421.497 206.89C421.843 206.824 422.171 206.724 422.484 206.591L422.673 207.319ZM420.58 205.097C420.879 205.097 421.125 205.023 421.318 204.877C421.51 204.725 421.653 204.532 421.746 204.299C421.846 204.06 421.896 203.808 421.896 203.542C421.896 203.323 421.859 203.127 421.786 202.954C421.713 202.775 421.6 202.635 421.447 202.536C421.295 202.436 421.092 202.386 420.84 202.386C420.567 202.386 420.338 202.459 420.152 202.605C419.966 202.745 419.823 202.934 419.724 203.173C419.624 203.406 419.574 203.668 419.574 203.961C419.574 204.286 419.65 204.558 419.803 204.778C419.956 204.99 420.215 205.097 420.58 205.097ZM429.14 206.621V200.981C429.14 200.543 429.263 200.194 429.508 199.935C429.754 199.676 430.139 199.546 430.664 199.546H431.601V200.413H430.804C430.598 200.413 430.445 200.47 430.345 200.583C430.246 200.689 430.196 200.842 430.196 201.041V206.621H429.14ZM428.402 202.247V201.39H431.521V202.247H428.402ZM434.472 206.741C433.967 206.741 433.525 206.628 433.147 206.402C432.768 206.176 432.476 205.854 432.27 205.435C432.064 205.017 431.961 204.529 431.961 203.971C431.961 203.406 432.064 202.918 432.27 202.506C432.476 202.094 432.768 201.775 433.147 201.549C433.525 201.317 433.967 201.2 434.472 201.2C434.977 201.2 435.418 201.317 435.797 201.549C436.176 201.775 436.468 202.094 436.674 202.506C436.88 202.918 436.983 203.406 436.983 203.971C436.983 204.529 436.88 205.017 436.674 205.435C436.468 205.854 436.176 206.176 435.797 206.402C435.418 206.628 434.977 206.741 434.472 206.741ZM434.472 205.824C434.924 205.824 435.272 205.661 435.518 205.336C435.764 205.004 435.887 204.548 435.887 203.971C435.887 203.393 435.764 202.941 435.518 202.615C435.272 202.283 434.924 202.117 434.472 202.117C434.027 202.117 433.678 202.283 433.426 202.615C433.18 202.941 433.057 203.393 433.057 203.971C433.057 204.548 433.18 205.004 433.426 205.336C433.678 205.661 434.027 205.824 434.472 205.824ZM438.05 206.621V201.32H439.017L439.057 202.725L438.967 202.695C439.04 202.217 439.186 201.868 439.406 201.649C439.631 201.43 439.934 201.32 440.312 201.32H440.82V202.267H440.312C440.047 202.267 439.824 202.31 439.645 202.396C439.465 202.483 439.329 202.615 439.236 202.795C439.15 202.974 439.107 203.207 439.107 203.492V206.621H438.05ZM446.577 206.741C446.072 206.741 445.631 206.628 445.252 206.402C444.873 206.176 444.581 205.854 444.375 205.435C444.169 205.017 444.066 204.529 444.066 203.971C444.066 203.413 444.169 202.928 444.375 202.516C444.581 202.097 444.873 201.775 445.252 201.549C445.631 201.317 446.072 201.2 446.577 201.2C447.009 201.2 447.391 201.277 447.723 201.43C448.062 201.576 448.334 201.792 448.54 202.077C448.753 202.363 448.889 202.712 448.949 203.124L447.843 203.183C447.789 202.838 447.65 202.576 447.424 202.396C447.198 202.21 446.916 202.117 446.577 202.117C446.132 202.117 445.783 202.283 445.531 202.615C445.285 202.941 445.162 203.393 445.162 203.971C445.162 204.548 445.285 205.004 445.531 205.336C445.783 205.661 446.132 205.824 446.577 205.824C446.916 205.824 447.198 205.731 447.424 205.545C447.65 205.352 447.789 205.063 447.843 204.678L448.949 204.738C448.889 205.143 448.753 205.495 448.54 205.794C448.334 206.093 448.062 206.325 447.723 206.492C447.391 206.658 447.009 206.741 446.577 206.741ZM452.095 206.741C451.59 206.741 451.148 206.628 450.769 206.402C450.391 206.176 450.098 205.854 449.892 205.435C449.686 205.017 449.584 204.529 449.584 203.971C449.584 203.406 449.686 202.918 449.892 202.506C450.098 202.094 450.391 201.775 450.769 201.549C451.148 201.317 451.59 201.2 452.095 201.2C452.599 201.2 453.041 201.317 453.42 201.549C453.799 201.775 454.091 202.094 454.297 202.506C454.503 202.918 454.606 203.406 454.606 203.971C454.606 204.529 454.503 205.017 454.297 205.435C454.091 205.854 453.799 206.176 453.42 206.402C453.041 206.628 452.599 206.741 452.095 206.741ZM452.095 205.824C452.546 205.824 452.895 205.661 453.141 205.336C453.387 205.004 453.51 204.548 453.51 203.971C453.51 203.393 453.387 202.941 453.141 202.615C452.895 202.283 452.546 202.117 452.095 202.117C451.65 202.117 451.301 202.283 451.048 202.615C450.803 202.941 450.68 203.393 450.68 203.971C450.68 204.548 450.803 205.004 451.048 205.336C451.301 205.661 451.65 205.824 452.095 205.824ZM455.673 206.621V201.32H456.64L456.68 202.735L456.55 202.665C456.61 202.32 456.723 202.041 456.889 201.828C457.055 201.616 457.257 201.459 457.497 201.36C457.736 201.254 457.995 201.2 458.274 201.2C458.672 201.2 459.001 201.29 459.26 201.469C459.526 201.642 459.725 201.881 459.858 202.187C459.998 202.486 460.067 202.828 460.067 203.213V206.621H459.011V203.532C459.011 203.22 458.978 202.957 458.912 202.745C458.845 202.532 458.736 202.37 458.583 202.257C458.43 202.144 458.231 202.087 457.985 202.087C457.613 202.087 457.311 202.21 457.078 202.456C456.846 202.702 456.729 203.06 456.729 203.532V206.621H455.673ZM463.214 206.621C462.709 206.621 462.337 206.505 462.098 206.272C461.858 206.04 461.739 205.678 461.739 205.186V200.074H462.795V205.106C462.795 205.352 462.848 205.522 462.954 205.615C463.061 205.708 463.224 205.754 463.443 205.754H464.2V206.621H463.214ZM460.932 202.187V201.32H464.2V202.187H460.932ZM467.304 206.741C466.786 206.741 466.338 206.628 465.959 206.402C465.587 206.176 465.298 205.854 465.092 205.435C464.893 205.017 464.793 204.529 464.793 203.971C464.793 203.413 464.893 202.928 465.092 202.516C465.298 202.097 465.587 201.775 465.959 201.549C466.331 201.317 466.769 201.2 467.274 201.2C467.752 201.2 468.174 201.313 468.54 201.539C468.905 201.758 469.187 202.077 469.387 202.496C469.593 202.914 469.696 203.419 469.696 204.01V204.279H465.889C465.916 204.798 466.052 205.186 466.298 205.445C466.55 205.704 466.889 205.834 467.314 205.834C467.626 205.834 467.885 205.761 468.091 205.615C468.297 205.469 468.44 205.273 468.52 205.027L469.616 205.097C469.476 205.588 469.201 205.987 468.789 206.292C468.384 206.591 467.889 206.741 467.304 206.741ZM465.889 203.482H468.58C468.546 203.011 468.41 202.662 468.171 202.436C467.938 202.21 467.64 202.097 467.274 202.097C466.896 202.097 466.583 202.217 466.338 202.456C466.098 202.688 465.949 203.031 465.889 203.482ZM470.039 206.621L471.962 203.911L470.119 201.32H471.295L472.6 203.223L473.866 201.32H475.071L473.248 203.931L475.151 206.621H473.975L472.61 204.598L471.235 206.621H470.039ZM477.898 206.621C477.393 206.621 477.021 206.505 476.782 206.272C476.542 206.04 476.423 205.678 476.423 205.186V200.074H477.479V205.106C477.479 205.352 477.532 205.522 477.638 205.615C477.745 205.708 477.908 205.754 478.127 205.754H478.884V206.621H477.898ZM475.616 202.187V201.32H478.884V202.187H475.616Z" fill="#FAFAFA" fill-opacity="0.55"/>
<path d="M599.863 200.629C599.863 198.566 601.536 196.893 603.6 196.893H615.6C617.664 196.893 619.337 198.566 619.337 200.629V205.612C619.337 207.675 617.664 209.348 615.6 209.348H603.6C601.536 209.348 599.863 207.675 599.863 205.612V200.629Z" fill="#FAFAFA" fill-opacity="0.15"/>
<path d="M605.433 205.121V200.933H603.911V200.294H607.691V200.933H606.169V205.121H605.433ZM608.838 205.181C608.608 205.181 608.402 205.138 608.219 205.051C608.038 204.962 607.896 204.837 607.791 204.676C607.686 204.513 607.634 204.322 607.634 204.101V204.094C607.634 203.878 607.686 203.693 607.791 203.539C607.898 203.383 608.052 203.261 608.253 203.174C608.455 203.085 608.701 203.033 608.988 203.017L610.326 202.937V203.445L609.082 203.526C608.83 203.539 608.645 203.591 608.527 203.683C608.409 203.774 608.35 203.901 608.35 204.064V204.071C608.35 204.24 608.413 204.373 608.54 204.469C608.67 204.562 608.832 204.609 609.029 204.609C609.211 204.609 609.373 204.573 609.514 204.499C609.656 204.425 609.768 204.326 609.848 204.201C609.931 204.076 609.972 203.936 609.972 203.78V202.636C609.972 202.435 609.909 202.281 609.785 202.174C609.66 202.067 609.473 202.014 609.226 202.014C609.023 202.014 608.857 202.049 608.728 202.121C608.6 202.192 608.515 202.292 608.47 202.422L608.467 202.435H607.778L607.781 202.408C607.81 202.21 607.889 202.037 608.018 201.89C608.148 201.743 608.318 201.628 608.53 201.545C608.742 201.463 608.985 201.422 609.259 201.422C609.563 201.422 609.82 201.471 610.032 201.569C610.244 201.665 610.404 201.804 610.514 201.987C610.625 202.167 610.681 202.384 610.681 202.636V205.121H609.972V204.606H609.915C609.846 204.726 609.758 204.83 609.651 204.917C609.544 205.004 609.422 205.07 609.286 205.114C609.15 205.159 609.001 205.181 608.838 205.181ZM613.631 205.181C613.462 205.181 613.306 205.157 613.163 205.108C613.02 205.056 612.893 204.984 612.782 204.89C612.672 204.794 612.583 204.681 612.514 204.549H612.457V205.121H611.745V200.067H612.457V202.064H612.514C612.579 201.932 612.667 201.82 612.778 201.726C612.89 201.632 613.018 201.56 613.163 201.508C613.308 201.455 613.464 201.428 613.631 201.428C613.937 201.428 614.202 201.505 614.427 201.659C614.653 201.811 614.827 202.027 614.949 202.308C615.074 202.587 615.137 202.918 615.137 203.301V203.308C615.137 203.689 615.074 204.021 614.949 204.302C614.827 204.583 614.653 204.8 614.427 204.954C614.202 205.105 613.937 205.181 613.631 205.181ZM613.431 204.569C613.636 204.569 613.811 204.519 613.956 204.419C614.101 204.316 614.212 204.171 614.29 203.984C614.368 203.794 614.407 203.569 614.407 203.308V203.301C614.407 203.04 614.368 202.816 614.29 202.629C614.212 202.44 614.101 202.295 613.956 202.194C613.811 202.092 613.636 202.04 613.431 202.04C613.228 202.04 613.053 202.092 612.905 202.194C612.758 202.297 612.645 202.442 612.564 202.629C612.484 202.816 612.444 203.04 612.444 203.301V203.308C612.444 203.567 612.483 203.791 612.561 203.98C612.641 204.17 612.755 204.316 612.902 204.419C613.052 204.519 613.228 204.569 613.431 204.569Z" fill="#FAFAFA" fill-opacity="0.85"/>
<path d="M625.159 206.121C624.781 206.121 624.502 206.034 624.322 205.86C624.143 205.685 624.053 205.414 624.053 205.045V201.211H624.845V204.985C624.845 205.169 624.885 205.297 624.965 205.366C625.045 205.436 625.167 205.471 625.331 205.471H625.899V206.121H625.159ZM623.448 202.795V202.145H625.899V202.795H623.448ZM628.227 206.211C627.849 206.211 627.517 206.126 627.233 205.957C626.949 205.787 626.73 205.546 626.576 205.232C626.421 204.918 626.344 204.552 626.344 204.133C626.344 203.71 626.421 203.343 626.576 203.035C626.73 202.726 626.949 202.487 627.233 202.317C627.517 202.143 627.849 202.056 628.227 202.056C628.606 202.056 628.937 202.143 629.221 202.317C629.505 202.487 629.724 202.726 629.879 203.035C630.033 203.343 630.11 203.71 630.11 204.133C630.11 204.552 630.033 204.918 629.879 205.232C629.724 205.546 629.505 205.787 629.221 205.957C628.937 206.126 628.606 206.211 628.227 206.211ZM628.227 205.523C628.566 205.523 628.828 205.401 629.012 205.157C629.196 204.908 629.288 204.567 629.288 204.133C629.288 203.7 629.196 203.361 629.012 203.117C628.828 202.868 628.566 202.743 628.227 202.743C627.893 202.743 627.632 202.868 627.442 203.117C627.258 203.361 627.166 203.7 627.166 204.133C627.166 204.567 627.258 204.908 627.442 205.157C627.632 205.401 627.893 205.523 628.227 205.523ZM634.333 206.211C633.96 206.211 633.643 206.153 633.384 206.039C633.13 205.924 632.933 205.767 632.794 205.568C632.654 205.364 632.575 205.13 632.555 204.866L633.369 204.828C633.409 205.047 633.504 205.222 633.653 205.351C633.803 205.481 634.029 205.546 634.333 205.546C634.582 205.546 634.779 205.506 634.924 205.426C635.068 205.346 635.14 205.219 635.14 205.045C635.14 204.95 635.116 204.871 635.066 204.806C635.021 204.736 634.931 204.679 634.797 204.634C634.662 204.584 634.463 204.537 634.199 204.492C633.805 204.417 633.496 204.33 633.272 204.23C633.048 204.131 632.888 204.004 632.794 203.849C632.699 203.695 632.652 203.508 632.652 203.289C632.652 202.925 632.786 202.629 633.055 202.399C633.329 202.17 633.723 202.056 634.236 202.056C634.58 202.056 634.869 202.115 635.103 202.235C635.337 202.35 635.519 202.506 635.649 202.706C635.783 202.9 635.868 203.119 635.903 203.363L635.088 203.408C635.063 203.269 635.013 203.149 634.939 203.05C634.869 202.945 634.774 202.865 634.655 202.81C634.535 202.751 634.393 202.721 634.229 202.721C633.975 202.721 633.785 202.771 633.661 202.87C633.536 202.97 633.474 203.099 633.474 203.259C633.474 203.378 633.501 203.476 633.556 203.55C633.616 203.625 633.711 203.687 633.84 203.737C633.97 203.782 634.142 203.822 634.356 203.857C634.769 203.926 635.093 204.014 635.327 204.118C635.561 204.218 635.726 204.342 635.821 204.492C635.915 204.641 635.963 204.823 635.963 205.037C635.963 205.287 635.893 205.498 635.753 205.673C635.614 205.847 635.422 205.982 635.178 206.076C634.934 206.166 634.652 206.211 634.333 206.211ZM637.455 206.121L636.244 202.145H637.074L637.926 205.254L638.8 202.145H639.547L640.422 205.254L641.281 202.145H642.111L640.9 206.121H640.011L639.174 203.281L638.337 206.121H637.455ZM642.763 206.121V202.145H643.556V206.121H642.763ZM642.748 201.57V200.778H643.57V201.57H642.748ZM645.93 206.121C645.551 206.121 645.272 206.034 645.093 205.86C644.914 205.685 644.824 205.414 644.824 205.045V201.211H645.616V204.985C645.616 205.169 645.656 205.297 645.736 205.366C645.815 205.436 645.937 205.471 646.102 205.471H646.67V206.121H645.93ZM644.219 202.795V202.145H646.67V202.795H644.219ZM648.998 206.211C648.619 206.211 648.288 206.126 648.004 205.957C647.72 205.787 647.501 205.546 647.346 205.232C647.192 204.918 647.115 204.552 647.115 204.133C647.115 203.715 647.192 203.351 647.346 203.042C647.501 202.728 647.72 202.487 648.004 202.317C648.288 202.143 648.619 202.056 648.998 202.056C649.322 202.056 649.608 202.113 649.857 202.227C650.111 202.337 650.316 202.499 650.47 202.713C650.63 202.927 650.732 203.189 650.777 203.498L649.947 203.543C649.907 203.284 649.803 203.087 649.633 202.952C649.464 202.813 649.252 202.743 648.998 202.743C648.664 202.743 648.403 202.868 648.213 203.117C648.029 203.361 647.937 203.7 647.937 204.133C647.937 204.567 648.029 204.908 648.213 205.157C648.403 205.401 648.664 205.523 648.998 205.523C649.252 205.523 649.464 205.453 649.633 205.314C649.803 205.169 649.907 204.953 649.947 204.664L650.777 204.709C650.732 205.013 650.63 205.277 650.47 205.501C650.316 205.725 650.111 205.899 649.857 206.024C649.608 206.148 649.322 206.211 648.998 206.211ZM651.499 206.121V200.815H652.291V203.042L652.194 203.027C652.239 202.803 652.321 202.621 652.441 202.482C652.561 202.337 652.708 202.23 652.882 202.16C653.056 202.09 653.248 202.056 653.457 202.056C653.746 202.056 653.99 202.12 654.19 202.25C654.389 202.374 654.538 202.551 654.638 202.78C654.743 203.01 654.795 203.271 654.795 203.565V206.121H654.003V203.774C654.003 203.416 653.941 203.152 653.816 202.982C653.696 202.808 653.507 202.721 653.248 202.721C652.959 202.721 652.727 202.813 652.553 202.997C652.379 203.177 652.291 203.441 652.291 203.789V206.121H651.499Z" fill="#FAFAFA" fill-opacity="0.25"/>
<path d="M662.303 203.12C662.303 200.247 662.303 198.81 662.768 197.675C663.4 196.132 664.626 194.906 666.169 194.274C667.304 193.809 668.741 193.809 671.614 193.809H731.462C734.335 193.809 735.772 193.809 736.906 194.274C738.45 194.906 739.676 196.132 740.308 197.675C740.773 198.81 740.773 200.247 740.773 203.12V203.12C740.773 205.993 740.773 207.429 740.308 208.564C739.676 210.108 738.45 211.333 736.906 211.966C735.772 212.431 734.335 212.431 731.462 212.431H671.614C668.741 212.431 667.304 212.431 666.169 211.966C664.626 211.333 663.4 210.108 662.768 208.564C662.303 207.429 662.303 205.993 662.303 203.12V203.12Z" fill="#0A0A0A" fill-opacity="0.2"/>
<path d="M673.626 205.736C672.388 205.736 671.616 205.015 671.528 203.952L672.337 203.901C672.431 204.622 672.868 205.022 673.64 205.022C674.303 205.022 674.696 204.767 674.696 204.279C674.696 203.842 674.47 203.573 673.327 203.296C672.089 202.998 671.638 202.641 671.638 201.833C671.638 200.944 672.315 200.332 673.429 200.332C674.609 200.332 675.286 201.039 675.403 202.015L674.594 202.058C674.521 201.461 674.121 201.046 673.415 201.046C672.817 201.046 672.446 201.352 672.446 201.803C672.446 202.255 672.701 202.422 673.706 202.663C675.046 202.976 675.504 203.478 675.504 204.236C675.504 205.16 674.74 205.736 673.626 205.736ZM678.126 205.707C676.997 205.707 676.291 204.906 676.291 203.682C676.291 202.459 676.997 201.658 678.104 201.658C679.16 201.658 679.874 202.408 679.874 203.711V203.908H677.092C677.128 204.665 677.514 205.044 678.133 205.044C678.585 205.044 678.891 204.818 679.014 204.454L679.816 204.505C679.612 205.226 678.978 205.707 678.126 205.707ZM677.092 203.325H679.058C679.007 202.641 678.629 202.313 678.104 202.313C677.551 202.313 677.179 202.67 677.092 203.325ZM681.819 205.707C681.011 205.707 680.494 205.321 680.494 204.651C680.494 203.988 680.88 203.631 681.732 203.464L683.064 203.209C683.064 202.612 682.78 202.313 682.227 202.313C681.732 202.313 681.455 202.539 681.353 202.961L680.559 202.91C680.705 202.138 681.309 201.658 682.227 201.658C683.276 201.658 683.836 202.248 683.836 203.252V204.76C683.836 204.949 683.895 205.007 684.04 205.007H684.179V205.619C684.128 205.634 684.011 205.641 683.895 205.641C683.458 205.641 683.195 205.481 683.13 205.044V205.022C682.933 205.43 682.424 205.707 681.819 205.707ZM681.943 205.095C682.642 205.095 683.064 204.658 683.064 204.039V203.791L681.928 204.01C681.462 204.097 681.295 204.279 681.295 204.578C681.295 204.913 681.528 205.095 681.943 205.095ZM684.83 205.619V201.745H685.537L685.558 202.481C685.704 201.971 686.01 201.745 686.483 201.745H686.855V202.437H686.483C685.893 202.437 685.602 202.721 685.602 203.333V205.619H684.83ZM688.999 205.707C687.885 205.707 687.164 204.906 687.164 203.682C687.164 202.459 687.885 201.658 688.999 201.658C689.939 201.658 690.601 202.167 690.732 203.063L689.924 203.107C689.844 202.604 689.487 202.328 688.999 202.328C688.344 202.328 687.965 202.83 687.965 203.682C687.965 204.534 688.344 205.037 688.999 205.037C689.494 205.037 689.851 204.76 689.924 204.199L690.732 204.243C690.609 205.131 689.946 205.707 688.999 205.707ZM691.437 205.619V200.449H692.209V202.306C692.412 201.862 692.835 201.658 693.345 201.658C694.189 201.658 694.648 202.262 694.648 203.129V205.619H693.876V203.333C693.876 202.641 693.636 202.306 693.141 202.306C692.573 202.306 692.209 202.67 692.209 203.347V205.619H691.437Z" fill="#FAFAFA" fill-opacity="0.55"/>
<path d="M701.537 203.119C701.537 201.29 701.537 200.375 701.78 199.636C702.262 198.172 703.41 197.024 704.874 196.542C705.613 196.299 706.528 196.299 708.357 196.299H731.461C733.29 196.299 734.205 196.299 734.944 196.542C736.408 197.024 737.556 198.172 738.038 199.636C738.281 200.375 738.281 201.29 738.281 203.119V203.119C738.281 204.948 738.281 205.863 738.038 206.602C737.556 208.066 736.408 209.214 734.944 209.695C734.205 209.939 733.29 209.939 731.461 209.939H708.357C706.528 209.939 705.613 209.939 704.874 209.695C703.41 209.214 702.262 208.066 701.78 206.602C701.537 205.863 701.537 204.948 701.537 203.119V203.119Z" fill="#FAFAFA" fill-opacity="0.1"/>
<path d="M709.142 205.619L711.006 200.449H712.003L713.868 205.619H713.03L712.557 204.272H710.445L709.979 205.619H709.142ZM710.693 203.558H712.316L711.501 201.199L710.693 203.558ZM715.913 205.707C714.784 205.707 714.238 205.16 714.18 204.396L714.974 204.359C715.047 204.789 715.294 205.058 715.913 205.058C716.394 205.058 716.663 204.913 716.663 204.571C716.663 204.287 716.518 204.163 715.782 204.032C714.653 203.82 714.318 203.493 714.318 202.859C714.318 202.153 714.865 201.658 715.877 201.658C716.947 201.658 717.406 202.255 717.479 202.932L716.685 202.976C716.656 202.612 716.43 202.306 715.862 202.306C715.36 202.306 715.119 202.524 715.119 202.83C715.119 203.172 715.309 203.311 715.935 203.413C717.107 203.609 717.464 203.93 717.464 204.563C717.464 205.291 716.838 205.707 715.913 205.707ZM718.261 205.619V200.449H719.032V203.66L720.773 201.745H721.749L720.234 203.376L721.807 205.619H720.918L719.717 203.857L719.032 204.585V205.619H718.261ZM724.068 205.619L725.932 200.449H726.93L728.794 205.619H727.957L727.483 204.272H725.372L724.906 205.619H724.068ZM725.619 203.558H727.243L726.428 201.199L725.619 203.558ZM729.406 205.619V200.449H730.192V205.619H729.406Z" fill="#FAFAFA"/>
<path d="M259.139 30.0293C259.399 30.2896 259.399 30.7116 259.139 30.972C258.878 31.2323 258.456 31.2323 258.196 30.972L254.196 26.972C253.936 26.7116 253.936 26.2896 254.196 26.0293L258.196 22.0292C258.456 21.7689 258.878 21.7689 259.139 22.0292C259.399 22.2896 259.399 22.7116 259.139 22.972L255.61 26.5006L259.139 30.0293Z" fill="#FAFAFA" fill-opacity="0.55"/>
<path d="M278.861 22.9707C278.601 22.7104 278.601 22.2884 278.861 22.028C279.122 21.7677 279.544 21.7677 279.804 22.028L283.804 26.028C284.064 26.2884 284.064 26.7104 283.804 26.9707L279.804 30.9708C279.544 31.2311 279.122 31.2311 278.861 30.9708C278.601 30.7104 278.601 30.2884 278.861 30.028L282.39 26.4994L278.861 22.9707Z" fill="#FAFAFA" fill-opacity="0.55"/>
<path d="M298.609 26.5C298.609 23.8076 300.792 21.625 303.484 21.625C304.867 21.625 305.871 22.1257 306.75 22.9395V22.1667C306.75 21.8675 306.992 21.625 307.291 21.625C307.591 21.625 307.833 21.8675 307.833 22.1667V23.7917C307.833 24.39 307.348 24.875 306.75 24.875H305.125C304.826 24.875 304.583 24.6325 304.583 24.3333C304.583 24.0342 304.826 23.7917 305.125 23.7917H306.076C305.326 23.0768 304.553 22.7083 303.484 22.7083C301.39 22.7083 299.693 24.4059 299.693 26.5C299.693 28.5941 301.39 30.2917 303.484 30.2917C305.134 30.2917 306.539 29.2371 307.06 27.7637C307.16 27.4818 307.47 27.334 307.752 27.4336C308.034 27.5333 308.181 27.8429 308.082 28.125C307.413 30.0176 305.608 31.375 303.484 31.375C300.792 31.375 298.609 29.1924 298.609 26.5Z" fill="#FAFAFA" fill-opacity="0.55"/>
<rect x="320.5" y="23.5" width="138" height="6" rx="3" fill="#FAFAFA" fill-opacity="0.1"/>
<rect x="281" y="254" width="169" height="119" rx="10" fill="#FAFAFA" fill-opacity="0.08"/>
<path d="M284 295.8C284 291.32 284 289.079 284.872 287.368C285.639 285.863 286.863 284.639 288.368 283.872C290.079 283 292.32 283 296.8 283H434.2C438.68 283 440.921 283 442.632 283.872C444.137 284.639 445.361 285.863 446.128 287.368C447 289.079 447 291.32 447 295.8V357.2C447 361.68 447 363.921 446.128 365.632C445.361 367.137 444.137 368.361 442.632 369.128C440.921 370 438.68 370 434.2 370H296.8C292.32 370 290.079 370 288.368 369.128C286.863 368.361 285.639 367.137 284.872 365.632C284 363.921 284 361.68 284 357.2V295.8Z" fill="#0A0A0A" fill-opacity="0.2"/>
<rect x="290" y="263" width="90" height="6" rx="3" fill="#FAFAFA" fill-opacity="0.1"/>
<rect x="290" y="274" width="69" height="4" rx="2" fill="#FAFAFA" fill-opacity="0.08"/>
<rect x="462" y="254" width="169" height="119" rx="10" fill="#FAFAFA" fill-opacity="0.08"/>
<path d="M465 295.8C465 291.32 465 289.079 465.872 287.368C466.639 285.863 467.863 284.639 469.368 283.872C471.079 283 473.32 283 477.8 283H615.2C619.68 283 621.921 283 623.632 283.872C625.137 284.639 626.361 285.863 627.128 287.368C628 289.079 628 291.32 628 295.8V357.2C628 361.68 628 363.921 627.128 365.632C626.361 367.137 625.137 368.361 623.632 369.128C621.921 370 619.68 370 615.2 370H477.8C473.32 370 471.079 370 469.368 369.128C467.863 368.361 466.639 367.137 465.872 365.632C465 363.921 465 361.68 465 357.2V295.8Z" fill="#0A0A0A" fill-opacity="0.2"/>
<rect x="471" y="263" width="90" height="6" rx="3" fill="#FAFAFA" fill-opacity="0.1"/>
<rect x="471" y="274" width="69" height="4" rx="2" fill="#FAFAFA" fill-opacity="0.08"/>
<rect x="643" y="254" width="169" height="119" rx="10" fill="#FAFAFA" fill-opacity="0.08"/>
<path d="M646 295.8C646 291.32 646 289.079 646.872 287.368C647.639 285.863 648.863 284.639 650.368 283.872C652.079 283 654.32 283 658.8 283H796.2C800.68 283 802.921 283 804.632 283.872C806.137 284.639 807.361 285.863 808.128 287.368C809 289.079 809 291.32 809 295.8V357.2C809 361.68 809 363.921 808.128 365.632C807.361 367.137 806.137 368.361 804.632 369.128C802.921 370 800.68 370 796.2 370H658.8C654.32 370 652.079 370 650.368 369.128C648.863 368.361 647.639 367.137 646.872 365.632C646 363.921 646 361.68 646 357.2V295.8Z" fill="#0A0A0A" fill-opacity="0.2"/>
<rect x="652" y="263" width="90" height="6" rx="3" fill="#FAFAFA" fill-opacity="0.1"/>
<rect x="652" y="274" width="69" height="4" rx="2" fill="#FAFAFA" fill-opacity="0.08"/>
<path d="M75 59C75 54.5817 78.5817 51 83 51V51C87.4183 51 91 54.5817 91 59V59C91 63.4183 87.4183 67 83 67V67C78.5817 67 75 63.4183 75 59V59Z" fill="#FAFAFA" fill-opacity="0.15"/>
<rect x="100" y="55" width="63" height="6" rx="3" fill="#FAFAFA" fill-opacity="0.1"/>
<rect x="76" y="204" width="12" height="12" rx="4" fill="#FAFAFA" fill-opacity="0.1"/>
<rect x="76" y="331" width="12" height="12" rx="4" fill="#FAFAFA" fill-opacity="0.1"/>
<rect x="76" y="225" width="12" height="12" rx="4" fill="#FAFAFA" fill-opacity="0.1"/>
<rect x="76" y="352" width="12" height="12" rx="4" fill="#FAFAFA" fill-opacity="0.1"/>
<rect x="76" y="246" width="12" height="12" rx="4" fill="#FAFAFA" fill-opacity="0.1"/>
<rect x="76" y="267" width="12" height="12" rx="4" fill="#FAFAFA" fill-opacity="0.1"/>
<rect x="76" y="182" width="63" height="4" rx="2" fill="#FAFAFA" fill-opacity="0.08"/>
<rect x="76" y="309" width="63" height="4" rx="2" fill="#FAFAFA" fill-opacity="0.08"/>
<rect x="94" y="207" width="105" height="6" rx="1" fill="#FAFAFA" fill-opacity="0.1"/>
<rect x="94" y="334" width="105" height="6" rx="1" fill="#FAFAFA" fill-opacity="0.1"/>
<rect x="94" y="228" width="85" height="6" rx="1" fill="#FAFAFA" fill-opacity="0.1"/>
<rect x="94" y="355" width="85" height="6" rx="1" fill="#FAFAFA" fill-opacity="0.1"/>
<rect x="94" y="249" width="97" height="6" rx="1" fill="#FAFAFA" fill-opacity="0.1"/>
<rect x="94" y="270" width="69" height="6" rx="1" fill="#FAFAFA" fill-opacity="0.1"/>
<path d="M84.251 99.5C85.2172 99.5003 86.001 100.284 86.001 101.25V103.75C86.001 104.716 85.2172 105.5 84.251 105.5H84.001V105.75C84.001 106.716 83.2172 107.5 82.251 107.5H80.3799L78.2432 108.688C78.0885 108.773 77.8996 108.771 77.7471 108.682C77.5944 108.592 77.501 108.427 77.501 108.25V107.482C76.6529 107.361 76 106.632 76 105.75V103.25C76 102.284 76.7845 101.5 77.751 101.5H78.001V101.25C78.001 100.284 78.7845 99.5 79.751 99.5H84.251ZM77.751 102.5C77.3368 102.5 77.001 102.836 77.001 103.25V105.75C77.001 106.164 77.3368 106.5 77.751 106.5H78.001C78.2769 106.5 78.501 106.724 78.501 107V107.4L80.0078 106.563L80.0654 106.536C80.1242 106.513 80.1873 106.5 80.251 106.5H82.251C82.665 106.5 83.001 106.164 83.001 105.75V105.01C83.0009 105.007 83 105.003 83 105C83 104.996 83.0009 104.992 83.001 104.987V103.25C83.001 102.836 82.665 102.5 82.251 102.5H77.751ZM79.751 100.5C79.3368 100.5 79.001 100.836 79.001 101.25V101.5H82.251C83.2172 101.5 84.001 102.284 84.001 103.25V104.5H84.251C84.665 104.5 85.001 104.164 85.001 103.75V101.25C85.001 100.836 84.665 100.5 84.251 100.5H79.751Z" fill="#FAFAFA" fill-opacity="0.55"/>
<path d="M95.415 107.5V101.084H93.126V100.045H98.838V101.084H96.549V107.5H95.415ZM100.581 107.626C99.416 107.626 98.6705 107.069 98.6705 106.103C98.6705 105.148 99.227 104.633 100.455 104.392L102.377 104.024C102.377 103.163 101.967 102.733 101.169 102.733C100.455 102.733 100.056 103.058 99.9095 103.667L98.765 103.594C98.975 102.481 99.8465 101.788 101.169 101.788C102.681 101.788 103.49 102.638 103.49 104.087V106.261C103.49 106.534 103.574 106.618 103.784 106.618H103.983V107.5C103.91 107.521 103.742 107.532 103.574 107.532C102.944 107.532 102.566 107.3 102.471 106.67V106.639C102.188 107.227 101.453 107.626 100.581 107.626ZM100.76 106.744C101.768 106.744 102.377 106.114 102.377 105.221V104.864L100.739 105.179C100.067 105.305 99.8255 105.568 99.8255 105.998C99.8255 106.481 100.161 106.744 100.76 106.744ZM107.035 107.626C105.407 107.626 104.62 106.838 104.536 105.736L105.68 105.683C105.785 106.303 106.142 106.691 107.035 106.691C107.728 106.691 108.116 106.481 108.116 105.988C108.116 105.578 107.906 105.4 106.846 105.211C105.218 104.906 104.735 104.434 104.735 103.52C104.735 102.502 105.523 101.788 106.982 101.788C108.526 101.788 109.187 102.649 109.292 103.625L108.148 103.688C108.106 103.163 107.78 102.722 106.961 102.722C106.237 102.722 105.89 103.037 105.89 103.478C105.89 103.972 106.163 104.171 107.066 104.318C108.757 104.602 109.271 105.064 109.271 105.977C109.271 107.027 108.368 107.626 107.035 107.626ZM110.419 107.5V100.045H111.532V104.675L114.042 101.914H115.449L113.265 104.266L115.533 107.5H114.252L112.519 104.959L111.532 106.009V107.5H110.419ZM118.376 107.626C116.748 107.626 115.961 106.838 115.877 105.736L117.021 105.683C117.126 106.303 117.483 106.691 118.376 106.691C119.069 106.691 119.457 106.481 119.457 105.988C119.457 105.578 119.247 105.4 118.187 105.211C116.559 104.906 116.076 104.434 116.076 103.52C116.076 102.502 116.864 101.788 118.323 101.788C119.867 101.788 120.528 102.649 120.633 103.625L119.489 103.688C119.447 103.163 119.121 102.722 118.302 102.722C117.578 102.722 117.231 103.037 117.231 103.478C117.231 103.972 117.504 104.171 118.407 104.318C120.098 104.602 120.612 105.064 120.612 105.977C120.612 107.027 119.709 107.626 118.376 107.626Z" fill="#FAFAFA" fill-opacity="0.55"/>
<path d="M83.5611 124C84.1441 124 84.5039 124.636 84.2042 125.136L83.3858 126.5H85.3458C86.0137 126.5 86.339 127.299 85.8907 127.766L85.8448 127.81L79.0235 133.885C78.4521 134.394 77.5757 133.821 77.8116 133.094L78.815 130H77.2823C76.7247 130 76.362 129.413 76.6114 128.915L78.8614 124.415L78.9151 124.324C79.0538 124.123 79.2838 124 79.5323 124H83.5611ZM77.6866 129H79.1588C79.6363 129 79.9836 129.437 79.8956 129.891L79.8721 129.981L79.0469 132.524L84.6895 127.5H82.9439C82.3612 127.5 82.0011 126.864 82.3008 126.364L83.1197 125H79.6866L77.6866 129Z" fill="#FAFAFA" fill-opacity="0.55"/>
<path d="M93.903 132.5V125.045H96.8745C98.46 125.045 99.4575 125.916 99.4575 127.292C99.4575 128.163 98.88 128.825 98.187 129.035C98.8695 129.14 99.2685 129.56 99.3315 130.326L99.531 132.5H98.3865L98.208 130.473C98.166 129.864 97.83 129.591 97.011 129.591H95.037V132.5H93.903ZM95.037 128.552H96.8955C97.746 128.552 98.2815 128.111 98.2815 127.323C98.2815 126.525 97.7565 126.084 96.801 126.084H95.037V128.552ZM103.08 132.626C101.484 132.626 100.434 131.481 100.434 129.707C100.434 127.932 101.484 126.788 103.08 126.788C104.676 126.788 105.726 127.932 105.726 129.707C105.726 131.481 104.676 132.626 103.08 132.626ZM103.08 131.66C104.025 131.66 104.571 130.935 104.571 129.707C104.571 128.478 104.025 127.754 103.08 127.754C102.135 127.754 101.589 128.478 101.589 129.707C101.589 130.935 102.135 131.66 103.08 131.66ZM108.688 132.626C107.554 132.626 106.851 131.838 106.851 130.505V126.914H107.964V130.221C107.964 131.24 108.31 131.691 109.024 131.691C109.833 131.691 110.316 131.145 110.316 130.19V126.914H111.429V132.5H110.389L110.379 131.586C110.085 132.269 109.497 132.626 108.688 132.626ZM114.868 132.5C113.808 132.5 113.314 132.038 113.314 130.988V127.827H112.464V126.914H113.314V125.601H114.427V126.914H115.908V127.827H114.427V130.904C114.427 131.429 114.648 131.586 115.11 131.586H115.908V132.5H114.868ZM116.869 126.105V124.992H118.024V126.105H116.869ZM116.89 132.5V126.914H118.003V132.5H116.89ZM119.638 132.5V126.914H120.656L120.677 127.89C120.971 127.124 121.612 126.788 122.378 126.788C123.628 126.788 124.268 127.691 124.268 128.909V132.5H123.155V129.245C123.155 128.258 122.851 127.722 122.074 127.722C121.286 127.722 120.751 128.258 120.751 129.245V132.5H119.638ZM128.018 132.626C126.39 132.626 125.372 131.471 125.372 129.707C125.372 127.943 126.39 126.788 127.986 126.788C129.509 126.788 130.538 127.869 130.538 129.749V130.032H126.527C126.579 131.124 127.136 131.67 128.028 131.67C128.679 131.67 129.12 131.345 129.299 130.82L130.454 130.893C130.16 131.933 129.246 132.626 128.018 132.626ZM126.527 129.192H129.362C129.288 128.205 128.742 127.733 127.986 127.733C127.188 127.733 126.653 128.247 126.527 129.192ZM133.818 132.626C132.19 132.626 131.403 131.838 131.319 130.736L132.463 130.683C132.568 131.303 132.925 131.691 133.818 131.691C134.511 131.691 134.899 131.481 134.899 130.988C134.899 130.578 134.689 130.4 133.629 130.211C132.001 129.906 131.518 129.434 131.518 128.52C131.518 127.502 132.306 126.788 133.765 126.788C135.309 126.788 135.97 127.649 136.075 128.625L134.931 128.688C134.889 128.163 134.563 127.722 133.744 127.722C133.02 127.722 132.673 128.037 132.673 128.478C132.673 128.972 132.946 129.171 133.849 129.318C135.54 129.602 136.054 130.064 136.054 130.977C136.054 132.027 135.151 132.626 133.818 132.626Z" fill="#FAFAFA" fill-opacity="0.55"/>
<path d="M80.585 149.776C80.8589 149.718 81.1422 149.718 81.4161 149.776C81.7441 149.846 82.0426 150.024 82.4503 150.259L84.3809 151.374C84.7887 151.609 85.092 151.779 85.3165 152.028C85.5038 152.236 85.6459 152.481 85.7325 152.748C85.8102 152.987 85.827 153.243 85.8301 153.554V156.446C85.827 156.757 85.8102 157.012 85.7325 157.252C85.6567 157.485 85.5386 157.702 85.3848 157.892L85.3165 157.972C85.092 158.221 84.7886 158.39 84.3809 158.626L82.4503 159.74C82.0424 159.975 81.7442 160.155 81.4161 160.224C81.1422 160.282 80.8589 160.282 80.585 160.224C80.2568 160.155 79.9578 159.975 79.5499 159.74L77.6202 158.626C77.2125 158.39 76.9081 158.222 76.6837 157.972C76.4963 157.764 76.3542 157.518 76.2676 157.252C76.1641 156.933 76.17 156.585 76.17 156.114V153.885C76.17 153.415 76.1641 153.067 76.2676 152.748C76.3542 152.481 76.4964 152.236 76.6837 152.028C76.9082 151.779 77.2124 151.609 77.6202 151.374L79.5499 150.259L79.838 150.094C80.1092 149.942 80.3389 149.828 80.585 149.776ZM81.5001 155.289V159.125C81.6058 159.069 81.7476 158.991 81.9503 158.874L83.8809 157.759C84.3469 157.49 84.4799 157.406 84.5733 157.302C84.6669 157.198 84.7381 157.076 84.7813 156.943L84.796 156.891C84.8259 156.765 84.8301 156.585 84.8301 156.114V153.885C84.8301 153.651 84.8271 153.489 84.8223 153.37L81.5001 155.289ZM77.17 153.885V156.114C77.17 156.652 77.1758 156.81 77.2188 156.943L77.2569 157.041C77.2994 157.136 77.3566 157.225 77.4268 157.303C77.5202 157.407 77.6544 157.491 78.1202 157.759L80.0508 158.874L80.3438 159.042C80.4028 159.075 80.4555 159.099 80.5001 159.123V155.289L77.1778 153.371C77.173 153.49 77.17 153.652 77.17 153.885ZM81.2081 150.754C81.0712 150.725 80.929 150.724 80.7921 150.754C80.6557 150.783 80.5164 150.857 80.0508 151.126L78.1202 152.24C77.9175 152.357 77.7788 152.441 77.6778 152.505L81.0001 154.423L84.3233 152.504C84.2224 152.44 84.0833 152.357 83.8809 152.24L81.9503 151.126C81.4842 150.857 81.3446 150.783 81.2081 150.754Z" fill="#FAFAFA" fill-opacity="0.55"/>
<path d="M96.864 158.668C94.848 158.668 93.462 157.208 93.462 154.783C93.462 152.378 94.827 150.877 96.8745 150.877C98.7225 150.877 99.7095 151.864 100.025 153.491L98.838 153.554C98.6385 152.536 98.0085 151.916 96.8745 151.916C95.52 151.916 94.638 153.008 94.638 154.783C94.638 156.568 95.5305 157.628 96.864 157.628C98.0715 157.628 98.712 156.946 98.8905 155.833L100.077 155.896C99.7935 157.586 98.7015 158.668 96.864 158.668ZM102.987 158.626C101.853 158.626 101.15 157.838 101.15 156.505V152.914H102.263V156.221C102.263 157.24 102.609 157.691 103.323 157.691C104.132 157.691 104.615 157.145 104.615 156.19V152.914H105.728V158.5H104.688L104.678 157.586C104.384 158.269 103.796 158.626 102.987 158.626ZM109.352 158.626C107.725 158.626 106.937 157.838 106.853 156.736L107.998 156.683C108.103 157.303 108.46 157.691 109.352 157.691C110.045 157.691 110.434 157.481 110.434 156.988C110.434 156.578 110.224 156.4 109.163 156.211C107.536 155.906 107.053 155.434 107.053 154.52C107.053 153.502 107.84 152.788 109.3 152.788C110.843 152.788 111.505 153.649 111.61 154.625L110.465 154.688C110.423 154.163 110.098 153.722 109.279 153.722C108.554 153.722 108.208 154.037 108.208 154.478C108.208 154.972 108.481 155.171 109.384 155.318C111.074 155.602 111.589 156.064 111.589 156.977C111.589 158.027 110.686 158.626 109.352 158.626ZM114.674 158.5C113.613 158.5 113.12 158.038 113.12 156.988V153.827H112.269V152.914H113.12V151.601H114.233V152.914H115.713V153.827H114.233V156.904C114.233 157.429 114.453 157.586 114.915 157.586H115.713V158.5H114.674ZM118.984 158.626C117.388 158.626 116.338 157.481 116.338 155.707C116.338 153.932 117.388 152.788 118.984 152.788C120.58 152.788 121.63 153.932 121.63 155.707C121.63 157.481 120.58 158.626 118.984 158.626ZM118.984 157.66C119.929 157.66 120.475 156.935 120.475 155.707C120.475 154.478 119.929 153.754 118.984 153.754C118.039 153.754 117.493 154.478 117.493 155.707C117.493 156.935 118.039 157.66 118.984 157.66ZM122.755 158.5V152.914H123.773L123.794 153.869C124.067 153.187 124.645 152.788 125.348 152.788C126.178 152.788 126.755 153.218 126.997 153.943C127.249 153.198 127.816 152.788 128.614 152.788C129.79 152.788 130.462 153.544 130.462 154.909V158.5H129.349V155.182C129.349 154.216 129.002 153.722 128.288 153.722C127.585 153.722 127.133 154.279 127.133 155.224V158.5H126.073V155.224C126.073 154.279 125.779 153.722 125.033 153.722C124.319 153.722 123.868 154.289 123.868 155.224V158.5H122.755ZM131.962 152.105V150.992H133.117V152.105H131.962ZM131.983 158.5V152.914H133.096V158.5H131.983ZM134.315 158.5V157.502L137.686 153.827H134.42V152.914H138.967V153.911L135.565 157.586H139.051V158.5H134.315ZM142.342 158.626C140.715 158.626 139.696 157.471 139.696 155.707C139.696 153.943 140.715 152.788 142.311 152.788C143.833 152.788 144.862 153.869 144.862 155.749V156.032H140.851C140.904 157.124 141.46 157.67 142.353 157.67C143.004 157.67 143.445 157.345 143.623 156.82L144.778 156.893C144.484 157.933 143.571 158.626 142.342 158.626ZM140.851 155.192H143.686C143.613 154.205 143.067 153.733 142.311 153.733C141.513 153.733 140.977 154.247 140.851 155.192Z" fill="#FAFAFA" fill-opacity="0.55"/>
<path opacity="0.5" d="M75.16 86L77.208 80.32H78.304L80.352 86H79.432L78.912 84.52H76.592L76.08 86H75.16ZM76.864 83.736H78.648L77.752 81.144L76.864 83.736ZM82.7594 86.096C81.5194 86.096 80.9194 85.496 80.8554 84.656L81.7274 84.616C81.8074 85.088 82.0794 85.384 82.7594 85.384C83.2874 85.384 83.5834 85.224 83.5834 84.848C83.5834 84.536 83.4234 84.4 82.6154 84.256C81.3754 84.024 81.0074 83.664 81.0074 82.968C81.0074 82.192 81.6074 81.648 82.7194 81.648C83.8954 81.648 84.3994 82.304 84.4794 83.048L83.6074 83.096C83.5754 82.696 83.3274 82.36 82.7034 82.36C82.1514 82.36 81.8874 82.6 81.8874 82.936C81.8874 83.312 82.0954 83.464 82.7834 83.576C84.0714 83.792 84.4634 84.144 84.4634 84.84C84.4634 85.64 83.7754 86.096 82.7594 86.096ZM85.4821 81.128V80.28H86.3621V81.128H85.4821ZM85.4981 86V81.744H86.3461V86H85.4981ZM89.1389 86.096C88.0429 86.096 87.3629 85.24 87.3629 83.872C87.3629 82.512 88.0509 81.648 89.1389 81.648C89.7229 81.648 90.2109 81.904 90.4429 82.344V80.32H91.2909V86H90.4989L90.4749 85.36C90.2349 85.824 89.7309 86.096 89.1389 86.096ZM89.3629 85.36C90.0589 85.36 90.4429 84.808 90.4429 83.872C90.4429 82.928 90.0589 82.384 89.3629 82.384C88.6829 82.384 88.2429 82.944 88.2429 83.872C88.2429 84.784 88.6829 85.36 89.3629 85.36ZM94.3279 86.096C93.0879 86.096 92.3119 85.216 92.3119 83.872C92.3119 82.528 93.0879 81.648 94.3039 81.648C95.4639 81.648 96.2479 82.472 96.2479 83.904V84.12H93.1919C93.2319 84.952 93.6559 85.368 94.3359 85.368C94.8319 85.368 95.1679 85.12 95.3039 84.72L96.1839 84.776C95.9599 85.568 95.2639 86.096 94.3279 86.096ZM93.1919 83.48H95.3519C95.2959 82.728 94.8799 82.368 94.3039 82.368C93.6959 82.368 93.2879 82.76 93.1919 83.48Z" fill="#FAFAFA" fill-opacity="0.55"/>
</g>
<path d="M82 10.5H819C828.665 10.5 836.5 18.335 836.5 28V386C836.5 395.665 828.665 403.5 819 403.5H82C72.335 403.5 64.5 395.665 64.5 386V28L64.5059 27.5479C64.7457 18.0918 72.4862 10.5 82 10.5Z" stroke="#FAFAFA" stroke-opacity="0.1"/>
</g>
<defs>
<clipPath id="clip0_3723_15850">
<rect width="900" height="356" fill="white"/>
</clipPath>
<clipPath id="clip1_3723_15850">
<path d="M64 28C64 18.0589 72.0589 10 82 10H819C828.941 10 837 18.0589 837 28V386C837 395.941 828.941 404 819 404H82C72.0589 404 64 395.941 64 386V28Z" fill="white"/>
</clipPath>
</defs>
</svg>
